<svg width="1200" height="1201" viewBox="0 0 1200 1201" fill="none" xmlns="http://www.w3.org/2000/svg">
<circle cx="600" cy="600.005" r="600" fill="#EEFAF6"/>
<path fill-rule="evenodd" clip-rule="evenodd" d="M293 706.654V608C293 662.485 430.449 706.654 600 706.654C769.486 706.654 906.894 662.519 907 608.063V706.654C907 761.139 769.551 805.308 600 805.308C430.449 805.308 293 761.139 293 706.654Z" fill="#01A479"/>
<path fill-rule="evenodd" clip-rule="evenodd" d="M293 847.654V749C293 803.485 430.449 847.654 600 847.654C769.486 847.654 906.894 803.519 907 749.063V847.654C907 902.139 769.551 946.308 600 946.308C430.449 946.308 293 902.139 293 847.654Z" fill="#01A479"/>
<path d="M907 388C907 462.558 769.551 523 600 523C430.449 523 293 462.558 293 388C293 313.442 430.449 253 600 253C769.551 253 907 313.442 907 388Z" fill="#01A479"/>
<path fill-rule="evenodd" clip-rule="evenodd" d="M293 565.654V467C293 521.485 430.449 565.654 600 565.654C769.486 565.654 906.894 521.519 907 467.063V565.654C907 620.139 769.551 664.308 600 664.308C430.449 664.308 293 620.139 293 565.654Z" fill="#01A479"/>
</svg>
