<svg width="1200" height="1200" viewBox="0 0 1200 1200" fill="none" xmlns="http://www.w3.org/2000/svg">
<circle cx="600" cy="600" r="600" fill="#EEFAF6"/>
<path fill-rule="evenodd" clip-rule="evenodd" d="M781.331 212.688C789.681 200.762 788.239 184.537 777.944 174.243C766.228 162.527 747.204 162.497 735.488 174.213L513.456 396.245C501.741 407.96 501.741 426.955 513.456 438.671L783.571 708.786C795.287 720.502 814.282 720.502 825.998 708.786L1048.03 486.754C1059.74 475.039 1059.74 456.044 1048.03 444.328L1045.53 441.829C1036.37 432.666 1022.36 430.422 1010.79 436.265L932.423 475.85C904.668 489.87 876.539 457.6 894.216 432.018L937.819 368.918C946.055 356.998 944.596 340.895 934.351 330.65L912.972 309.271L872.378 268.677C866.066 262.365 857.271 259.191 848.383 260.019L805.728 263.991C780.277 266.361 763.711 237.852 778.372 216.913L781.331 212.688ZM661.242 831.115C672.957 842.831 691.952 842.831 703.668 831.115L746.802 787.982C758.517 776.266 758.517 757.271 746.802 745.555L476.687 475.441C464.971 463.725 445.976 463.725 434.26 475.441L391.127 518.574C379.411 530.29 379.411 549.285 391.127 561.001L445.809 615.683C451.949 621.823 455.127 630.322 454.523 638.984L452.213 672.093C451.591 681.003 447.032 689.173 439.775 694.38L326.074 775.962L242.428 838.43C242.35 838.488 242.342 838.601 242.411 838.67C242.476 838.735 242.472 838.843 242.401 838.903C240.299 840.685 238.254 842.567 236.271 844.55C197.218 883.603 197.218 946.919 236.271 985.972C275.323 1025.02 338.64 1025.02 377.692 985.972C379.675 983.989 381.557 981.944 383.338 979.842C383.399 979.771 383.507 979.766 383.574 979.833C383.642 979.901 383.755 979.893 383.813 979.817L447.343 897.231L530.389 783.809C535.369 777.008 542.98 772.616 551.36 771.707L582.61 768.318C591.642 767.339 600.632 770.506 607.057 776.93L661.242 831.115Z" fill="#01A479"/>
</svg>
