<svg width="288" height="263" viewBox="0 0 288 263" fill="none" xmlns="http://www.w3.org/2000/svg">
<g filter="url(#filter0_d)">
<path d="M210.42 119.352H208.92V120.506L210.034 120.802L210.42 119.352ZM210.42 119.352H211.92V118.199L210.805 117.902L210.42 119.352ZM210.42 128.028H208.92V129.528H210.42V128.028ZM255.802 128.028H257.302V126.528H255.802V128.028ZM255.802 173.411H254.302V174.911H255.802V173.411ZM264.478 173.411L264.478 171.911H264.478V173.411ZM264.478 208.115L264.477 209.615H264.478V208.115ZM264.445 208.115L264.447 206.615H264.445V208.115ZM255.802 208.115V206.615H254.302V208.115H255.802ZM255.802 253.498V254.998H257.302V253.498H255.802ZM210.42 253.498H208.92V254.998H210.42V253.498ZM210.42 243.822H211.92V242.322H210.42V243.822ZM210.42 243.822L208.92 243.822L208.92 245.322H210.42V243.822ZM175.715 243.822H174.215L174.215 243.825L175.715 243.822ZM175.715 243.887H177.215L177.215 243.884L175.715 243.887ZM175.715 253.498V254.998H177.215V253.498H175.715ZM131 253.498H129.5V254.998H131V253.498ZM131 207.115V205.615H129.5V207.115H131ZM139.643 207.115L139.645 205.615H139.643V207.115ZM139.676 207.115L139.675 208.615H139.676V207.115ZM139.676 172.411L139.452 173.894L139.564 173.911H139.676V172.411ZM139.676 172.411L139.9 170.928L139.789 170.911H139.676V172.411ZM131 172.411H129.5V173.911H131V172.411ZM131 128.028V126.528H129.5V128.028H131ZM175.715 128.028V129.528H177.215V128.028H175.715ZM175.715 119.417H177.215L177.215 119.414L175.715 119.417ZM175.715 119.352H174.215L174.215 119.355L175.715 119.352ZM211.92 119.352C211.92 108.94 203.479 100.5 193.067 100.5V103.5C201.822 103.5 208.92 110.597 208.92 119.352H211.92ZM210.805 117.902L210.805 117.902L210.034 120.802L210.035 120.802L210.805 117.902ZM211.92 128.028V119.352H208.92V128.028H211.92ZM255.802 126.528H210.42V129.528H255.802V126.528ZM257.302 173.411V128.028H254.302V173.411H257.302ZM264.478 171.911H255.802V174.911H264.478V171.911ZM283.33 190.763C283.33 180.351 274.89 171.911 264.478 171.911L264.478 174.911C273.233 174.911 280.33 182.008 280.33 190.763H283.33ZM264.478 209.615C274.89 209.615 283.33 201.175 283.33 190.763H280.33C280.33 199.518 273.233 206.615 264.478 206.615V209.615ZM264.444 209.615L264.477 209.615L264.48 206.615L264.447 206.615L264.444 209.615ZM255.802 209.615H264.445V206.615H255.802V209.615ZM257.302 253.498V208.115H254.302V253.498H257.302ZM210.42 254.998H255.802V251.998H210.42V254.998ZM208.92 243.822V253.498H211.92V243.822H208.92ZM210.42 245.322H210.42V242.322H210.42V245.322ZM193.067 227.97C201.822 227.97 208.919 235.067 208.92 243.822L211.92 243.822C211.919 233.41 203.479 224.97 193.067 224.97V227.97ZM177.215 243.822C177.215 235.067 184.312 227.97 193.067 227.97V224.97C182.656 224.97 174.215 233.41 174.215 243.822H177.215ZM177.215 243.884L177.215 243.819L174.215 243.825L174.215 243.89L177.215 243.884ZM177.215 253.498V243.887H174.215V253.498H177.215ZM131 254.998H175.715V251.998H131V254.998ZM129.5 207.115V253.498H132.5V207.115H129.5ZM131 208.615H139.643V205.615H131V208.615ZM139.642 208.615L139.675 208.615L139.678 205.615L139.645 205.615L139.642 208.615ZM139.676 208.615C150.088 208.615 158.528 200.175 158.528 189.763H155.528C155.528 198.518 148.431 205.615 139.676 205.615V208.615ZM158.528 189.763C158.528 179.351 150.088 170.911 139.676 170.911V173.911C148.431 173.911 155.528 181.008 155.528 189.763H158.528ZM139.9 170.928L139.9 170.928L139.452 173.894L139.452 173.894L139.9 170.928ZM139.676 170.911H131V173.911H139.676V170.911ZM129.5 128.028V172.411H132.5V128.028H129.5ZM175.715 126.528H131V129.528H175.715V126.528ZM174.215 119.417V128.028H177.215V119.417H174.215ZM174.215 119.355L174.215 119.42L177.215 119.414L177.215 119.349L174.215 119.355ZM193.067 100.5C182.656 100.5 174.215 108.94 174.215 119.352H177.215C177.215 110.597 184.312 103.5 193.067 103.5V100.5Z" fill="#01A479"/>
<path d="M210.42 119.352H208.92V120.506L210.034 120.802L210.42 119.352ZM210.42 119.352H211.92V118.199L210.805 117.902L210.42 119.352ZM210.42 128.028H208.92V129.528H210.42V128.028ZM255.802 128.028H257.302V126.528H255.802V128.028ZM255.802 173.411H254.302V174.911H255.802V173.411ZM264.478 173.411L264.478 171.911H264.478V173.411ZM264.478 208.115L264.477 209.615H264.478V208.115ZM264.445 208.115L264.447 206.615H264.445V208.115ZM255.802 208.115V206.615H254.302V208.115H255.802ZM255.802 253.498V254.998H257.302V253.498H255.802ZM210.42 253.498H208.92V254.998H210.42V253.498ZM210.42 243.822H211.92V242.322H210.42V243.822ZM210.42 243.822L208.92 243.822L208.92 245.322H210.42V243.822ZM175.715 243.822H174.215L174.215 243.825L175.715 243.822ZM175.715 243.887H177.215L177.215 243.884L175.715 243.887ZM175.715 253.498V254.998H177.215V253.498H175.715ZM131 253.498H129.5V254.998H131V253.498ZM131 207.115V205.615H129.5V207.115H131ZM139.643 207.115L139.645 205.615H139.643V207.115ZM139.676 207.115L139.675 208.615H139.676V207.115ZM139.676 172.411L139.452 173.894L139.564 173.911H139.676V172.411ZM139.676 172.411L139.9 170.928L139.789 170.911H139.676V172.411ZM131 172.411H129.5V173.911H131V172.411ZM131 128.028V126.528H129.5V128.028H131ZM175.715 128.028V129.528H177.215V128.028H175.715ZM175.715 119.417H177.215L177.215 119.414L175.715 119.417ZM175.715 119.352H174.215L174.215 119.355L175.715 119.352ZM211.92 119.352C211.92 108.94 203.479 100.5 193.067 100.5V103.5C201.822 103.5 208.92 110.597 208.92 119.352H211.92ZM210.805 117.902L210.805 117.902L210.034 120.802L210.035 120.802L210.805 117.902ZM211.92 128.028V119.352H208.92V128.028H211.92ZM255.802 126.528H210.42V129.528H255.802V126.528ZM257.302 173.411V128.028H254.302V173.411H257.302ZM264.478 171.911H255.802V174.911H264.478V171.911ZM283.33 190.763C283.33 180.351 274.89 171.911 264.478 171.911L264.478 174.911C273.233 174.911 280.33 182.008 280.33 190.763H283.33ZM264.478 209.615C274.89 209.615 283.33 201.175 283.33 190.763H280.33C280.33 199.518 273.233 206.615 264.478 206.615V209.615ZM264.444 209.615L264.477 209.615L264.48 206.615L264.447 206.615L264.444 209.615ZM255.802 209.615H264.445V206.615H255.802V209.615ZM257.302 253.498V208.115H254.302V253.498H257.302ZM210.42 254.998H255.802V251.998H210.42V254.998ZM208.92 243.822V253.498H211.92V243.822H208.92ZM210.42 245.322H210.42V242.322H210.42V245.322ZM193.067 227.97C201.822 227.97 208.919 235.067 208.92 243.822L211.92 243.822C211.919 233.41 203.479 224.97 193.067 224.97V227.97ZM177.215 243.822C177.215 235.067 184.312 227.97 193.067 227.97V224.97C182.656 224.97 174.215 233.41 174.215 243.822H177.215ZM177.215 243.884L177.215 243.819L174.215 243.825L174.215 243.89L177.215 243.884ZM177.215 253.498V243.887H174.215V253.498H177.215ZM131 254.998H175.715V251.998H131V254.998ZM129.5 207.115V253.498H132.5V207.115H129.5ZM131 208.615H139.643V205.615H131V208.615ZM139.642 208.615L139.675 208.615L139.678 205.615L139.645 205.615L139.642 208.615ZM139.676 208.615C150.088 208.615 158.528 200.175 158.528 189.763H155.528C155.528 198.518 148.431 205.615 139.676 205.615V208.615ZM158.528 189.763C158.528 179.351 150.088 170.911 139.676 170.911V173.911C148.431 173.911 155.528 181.008 155.528 189.763H158.528ZM139.9 170.928L139.9 170.928L139.452 173.894L139.452 173.894L139.9 170.928ZM139.676 170.911H131V173.911H139.676V170.911ZM129.5 128.028V172.411H132.5V128.028H129.5ZM175.715 126.528H131V129.528H175.715V126.528ZM174.215 119.417V128.028H177.215V119.417H174.215ZM174.215 119.355L174.215 119.42L177.215 119.414L177.215 119.349L174.215 119.355ZM193.067 100.5C182.656 100.5 174.215 108.94 174.215 119.352H177.215C177.215 110.597 184.312 103.5 193.067 103.5V100.5Z" fill="url(#paint0_linear)" fill-opacity="0.7"/>
</g>
<g filter="url(#filter1_d)">
<mask id="path-2-inside-1" fill="white">
<path fill-rule="evenodd" clip-rule="evenodd" d="M83.4189 0.362793V9.03917V9.03933C83.4188 18.6226 75.65 26.3913 66.0668 26.3913C56.4835 26.3913 48.7147 18.6226 48.7146 9.03933V9.03917V0.362793H4V45.7457H12.6754H12.6756C22.259 45.7457 30.0278 53.5145 30.0278 63.0978C30.0278 72.6812 22.259 80.45 12.6756 80.45H12.6754H4V125.832H48.715V134.508H48.7155V134.509C48.7155 144.092 56.4843 151.861 66.0677 151.861C75.651 151.861 83.4198 144.092 83.4198 134.509C83.4198 134.48 83.4198 134.451 83.4196 134.422C83.4195 134.404 83.4194 134.387 83.4193 134.37V125.832H128.802V80.45H137.478H137.478C147.061 80.4499 154.83 72.6811 154.83 63.0978C154.83 53.5145 147.061 45.7457 137.478 45.7456H137.478H128.802V0.362793H83.4189Z"/>
</mask>
<path d="M83.4189 0.362793V-99.6372H-16.5811V0.362793H83.4189ZM83.4189 9.03933L183.419 9.0402V9.03933H83.4189ZM48.7146 9.03933H-51.2854V9.0402L48.7146 9.03933ZM48.7146 0.362793H148.715V-99.6372H48.7146V0.362793ZM4 0.362793V-99.6372H-96V0.362793H4ZM4 45.7457H-96V145.746H4V45.7457ZM4 80.45V-19.55H-96V80.45H4ZM4 125.832H-96V225.832H4V125.832ZM48.715 125.832H148.715V25.8323H48.715V125.832ZM48.715 134.508H-51.285V234.508H48.715V134.508ZM48.7155 134.508H148.715V34.5085H48.7155V134.508ZM83.4196 134.422L-16.5792 134.911L-16.5791 134.929L-16.579 134.947L83.4196 134.422ZM83.4193 134.37H-16.5807V134.749L-16.5778 135.128L83.4193 134.37ZM83.4193 125.832V25.8323H-16.5807V125.832H83.4193ZM128.802 125.832V225.832H228.802V125.832H128.802ZM128.802 80.45V-19.55H28.8021V80.45H128.802ZM137.478 80.45V180.45H137.479L137.478 80.45ZM137.478 45.7456L137.479 -54.2544H137.478V45.7456ZM128.802 45.7456H28.8021V145.746H128.802V45.7456ZM128.802 0.362793H228.802V-99.6372H128.802V0.362793ZM183.419 9.03917V0.362793H-16.5811V9.03917H183.419ZM183.419 9.03933V9.03917H-16.5811V9.03933H183.419ZM66.0668 126.391C130.878 126.391 183.418 73.8516 183.419 9.0402L-16.5811 9.03845C-16.5807 -36.6064 20.4219 -73.6087 66.0668 -73.6087V126.391ZM-51.2854 9.0402C-51.2848 73.8516 1.25529 126.391 66.0668 126.391V-73.6087C111.712 -73.6087 148.714 -36.6064 148.715 9.03845L-51.2854 9.0402ZM-51.2854 9.03917V9.03933H148.715V9.03917H-51.2854ZM-51.2854 0.362793V9.03917H148.715V0.362793H-51.2854ZM4 100.363H48.7146V-99.6372H4V100.363ZM104 45.7457V0.362793H-96V45.7457H104ZM12.6754 -54.2543H4V145.746H12.6754V-54.2543ZM12.6756 -54.2543H12.6754V145.746H12.6756V-54.2543ZM130.028 63.0978C130.028 -1.71399 77.4874 -54.2543 12.6756 -54.2543V145.746C-32.9695 145.746 -69.9722 108.743 -69.9722 63.0978H130.028ZM12.6756 180.45C77.4874 180.45 130.028 127.91 130.028 63.0978H-69.9722C-69.9722 17.4527 -32.9695 -19.55 12.6756 -19.55V180.45ZM12.6754 180.45H12.6756V-19.55H12.6754V180.45ZM4 180.45H12.6754V-19.55H4V180.45ZM104 125.832V80.45H-96V125.832H104ZM48.715 25.8323H4V225.832H48.715V25.8323ZM148.715 134.508V125.832H-51.285V134.508H148.715ZM48.7155 34.5085H48.715V234.508H48.7155V34.5085ZM148.715 134.509V134.508H-51.2845V134.509H148.715ZM66.0677 51.8609C111.713 51.8609 148.715 88.8636 148.715 134.509H-51.2845C-51.2845 199.321 1.25583 251.861 66.0677 251.861V51.8609ZM-16.5802 134.509C-16.5802 88.8636 20.4225 51.8609 66.0677 51.8609V251.861C130.879 251.861 183.42 199.321 183.42 134.509H-16.5802ZM-16.579 134.947C-16.5799 134.783 -16.5802 134.637 -16.5802 134.509H183.42C183.42 134.323 183.419 134.118 183.418 133.896L-16.579 134.947ZM-16.5778 135.128C-16.5784 135.056 -16.5788 134.983 -16.5792 134.911L183.418 133.932C183.418 133.825 183.417 133.719 183.416 133.612L-16.5778 135.128ZM-16.5807 125.832V134.37H183.419V125.832H-16.5807ZM128.802 25.8323H83.4193V225.832H128.802V25.8323ZM28.8021 80.45V125.832H228.802V80.45H28.8021ZM137.478 -19.55H128.802V180.45H137.478V-19.55ZM137.478 -19.55H137.478V180.45H137.478V-19.55ZM54.8301 63.0978C54.8301 17.4529 91.8324 -19.5496 137.477 -19.55L137.479 180.45C202.29 180.449 254.83 127.909 254.83 63.0978H54.8301ZM137.477 145.746C91.8324 145.745 54.8301 108.743 54.8301 63.0978H254.83C254.83 -1.71367 202.29 -54.2538 137.479 -54.2544L137.477 145.746ZM137.478 145.746H137.478V-54.2544H137.478V145.746ZM128.802 145.746H137.478V-54.2544H128.802V145.746ZM28.8021 0.362793V45.7456H228.802V0.362793H28.8021ZM83.4189 100.363H128.802V-99.6372H83.4189V100.363Z" fill="#01A479" mask="url(#path-2-inside-1)"/>
<path d="M83.4189 0.362793V-99.6372H-16.5811V0.362793H83.4189ZM83.4189 9.03933L183.419 9.0402V9.03933H83.4189ZM48.7146 9.03933H-51.2854V9.0402L48.7146 9.03933ZM48.7146 0.362793H148.715V-99.6372H48.7146V0.362793ZM4 0.362793V-99.6372H-96V0.362793H4ZM4 45.7457H-96V145.746H4V45.7457ZM4 80.45V-19.55H-96V80.45H4ZM4 125.832H-96V225.832H4V125.832ZM48.715 125.832H148.715V25.8323H48.715V125.832ZM48.715 134.508H-51.285V234.508H48.715V134.508ZM48.7155 134.508H148.715V34.5085H48.7155V134.508ZM83.4196 134.422L-16.5792 134.911L-16.5791 134.929L-16.579 134.947L83.4196 134.422ZM83.4193 134.37H-16.5807V134.749L-16.5778 135.128L83.4193 134.37ZM83.4193 125.832V25.8323H-16.5807V125.832H83.4193ZM128.802 125.832V225.832H228.802V125.832H128.802ZM128.802 80.45V-19.55H28.8021V80.45H128.802ZM137.478 80.45V180.45H137.479L137.478 80.45ZM137.478 45.7456L137.479 -54.2544H137.478V45.7456ZM128.802 45.7456H28.8021V145.746H128.802V45.7456ZM128.802 0.362793H228.802V-99.6372H128.802V0.362793ZM183.419 9.03917V0.362793H-16.5811V9.03917H183.419ZM183.419 9.03933V9.03917H-16.5811V9.03933H183.419ZM66.0668 126.391C130.878 126.391 183.418 73.8516 183.419 9.0402L-16.5811 9.03845C-16.5807 -36.6064 20.4219 -73.6087 66.0668 -73.6087V126.391ZM-51.2854 9.0402C-51.2848 73.8516 1.25529 126.391 66.0668 126.391V-73.6087C111.712 -73.6087 148.714 -36.6064 148.715 9.03845L-51.2854 9.0402ZM-51.2854 9.03917V9.03933H148.715V9.03917H-51.2854ZM-51.2854 0.362793V9.03917H148.715V0.362793H-51.2854ZM4 100.363H48.7146V-99.6372H4V100.363ZM104 45.7457V0.362793H-96V45.7457H104ZM12.6754 -54.2543H4V145.746H12.6754V-54.2543ZM12.6756 -54.2543H12.6754V145.746H12.6756V-54.2543ZM130.028 63.0978C130.028 -1.71399 77.4874 -54.2543 12.6756 -54.2543V145.746C-32.9695 145.746 -69.9722 108.743 -69.9722 63.0978H130.028ZM12.6756 180.45C77.4874 180.45 130.028 127.91 130.028 63.0978H-69.9722C-69.9722 17.4527 -32.9695 -19.55 12.6756 -19.55V180.45ZM12.6754 180.45H12.6756V-19.55H12.6754V180.45ZM4 180.45H12.6754V-19.55H4V180.45ZM104 125.832V80.45H-96V125.832H104ZM48.715 25.8323H4V225.832H48.715V25.8323ZM148.715 134.508V125.832H-51.285V134.508H148.715ZM48.7155 34.5085H48.715V234.508H48.7155V34.5085ZM148.715 134.509V134.508H-51.2845V134.509H148.715ZM66.0677 51.8609C111.713 51.8609 148.715 88.8636 148.715 134.509H-51.2845C-51.2845 199.321 1.25583 251.861 66.0677 251.861V51.8609ZM-16.5802 134.509C-16.5802 88.8636 20.4225 51.8609 66.0677 51.8609V251.861C130.879 251.861 183.42 199.321 183.42 134.509H-16.5802ZM-16.579 134.947C-16.5799 134.783 -16.5802 134.637 -16.5802 134.509H183.42C183.42 134.323 183.419 134.118 183.418 133.896L-16.579 134.947ZM-16.5778 135.128C-16.5784 135.056 -16.5788 134.983 -16.5792 134.911L183.418 133.932C183.418 133.825 183.417 133.719 183.416 133.612L-16.5778 135.128ZM-16.5807 125.832V134.37H183.419V125.832H-16.5807ZM128.802 25.8323H83.4193V225.832H128.802V25.8323ZM28.8021 80.45V125.832H228.802V80.45H28.8021ZM137.478 -19.55H128.802V180.45H137.478V-19.55ZM137.478 -19.55H137.478V180.45H137.478V-19.55ZM54.8301 63.0978C54.8301 17.4529 91.8324 -19.5496 137.477 -19.55L137.479 180.45C202.29 180.449 254.83 127.909 254.83 63.0978H54.8301ZM137.477 145.746C91.8324 145.745 54.8301 108.743 54.8301 63.0978H254.83C254.83 -1.71367 202.29 -54.2538 137.479 -54.2544L137.477 145.746ZM137.478 145.746H137.478V-54.2544H137.478V145.746ZM128.802 145.746H137.478V-54.2544H128.802V145.746ZM28.8021 0.362793V45.7456H228.802V0.362793H28.8021ZM83.4189 100.363H128.802V-99.6372H83.4189V100.363Z" fill="url(#paint1_linear)" fill-opacity="0.7" mask="url(#path-2-inside-1)"/>
</g>
<defs>
<filter id="filter0_d" x="125.5" y="100.5" width="161.83" height="162.498" filterUnits="userSpaceOnUse" color-interpolation-filters="sRGB">
<feFlood flood-opacity="0" result="BackgroundImageFix"/>
<feColorMatrix in="SourceAlpha" type="matrix" values="0 0 0 0 0 0 0 0 0 0 0 0 0 0 0 0 0 0 127 0"/>
<feOffset dy="4"/>
<feGaussianBlur stdDeviation="2"/>
<feColorMatrix type="matrix" values="0 0 0 0 0 0 0 0 0 0 0 0 0 0 0 0 0 0 0.25 0"/>
<feBlend mode="normal" in2="BackgroundImageFix" result="effect1_dropShadow"/>
<feBlend mode="normal" in="SourceGraphic" in2="effect1_dropShadow" result="shape"/>
</filter>
<filter id="filter1_d" x="0" y="0.362793" width="158.83" height="159.498" filterUnits="userSpaceOnUse" color-interpolation-filters="sRGB">
<feFlood flood-opacity="0" result="BackgroundImageFix"/>
<feColorMatrix in="SourceAlpha" type="matrix" values="0 0 0 0 0 0 0 0 0 0 0 0 0 0 0 0 0 0 127 0"/>
<feOffset dy="4"/>
<feGaussianBlur stdDeviation="2"/>
<feColorMatrix type="matrix" values="0 0 0 0 0 0 0 0 0 0 0 0 0 0 0 0 0 0 0.25 0"/>
<feBlend mode="normal" in2="BackgroundImageFix" result="effect1_dropShadow"/>
<feBlend mode="normal" in="SourceGraphic" in2="effect1_dropShadow" result="shape"/>
</filter>
<linearGradient id="paint0_linear" x1="281.598" y1="252.191" x2="130.101" y2="101.362" gradientUnits="userSpaceOnUse">
<stop stop-color="#6764EA"/>
<stop offset="1" stop-color="white" stop-opacity="0"/>
</linearGradient>
<linearGradient id="paint1_linear" x1="4" y1="0.362793" x2="155.497" y2="151.192" gradientUnits="userSpaceOnUse">
<stop stop-color="#6764EA"/>
<stop offset="1" stop-color="white" stop-opacity="0"/>
</linearGradient>
</defs>
</svg>
