<svg width="314" height="263" viewBox="0 0 314 263" fill="none" xmlns="http://www.w3.org/2000/svg">
<g filter="url(#filter0_d)">
<mask id="path-1-inside-1" fill="white">
<path fill-rule="evenodd" clip-rule="evenodd" d="M189.059 24.5412C190.119 19.121 195.372 15.5863 200.793 16.6463L224.446 21.2718C229.866 22.3317 233.401 27.5849 232.341 33.0051L228.525 52.5193C232.211 54.5458 235.684 56.8766 238.915 59.472L255.288 48.4553C259.87 45.3722 266.084 46.5873 269.167 51.1695L282.622 71.1657C285.705 75.7478 284.49 81.9618 279.908 85.045L263.41 96.1453C264.502 99.9002 265.276 103.71 265.741 107.537L285.029 111.309C290.449 112.369 293.984 117.622 292.924 123.042L288.298 146.696C287.239 152.116 281.985 155.651 276.565 154.591L257.494 150.861C255.541 154.461 253.272 157.913 250.694 161.173L261.794 177.67C264.878 182.252 263.662 188.466 259.08 191.55L239.084 205.004C234.502 208.088 228.288 206.872 225.205 202.29L214.105 185.793C210.114 186.953 206.061 187.755 201.991 188.207L198.261 207.279C197.201 212.699 191.948 216.234 186.528 215.174L162.874 210.548C157.454 209.489 153.92 204.235 154.979 198.815L158.751 179.527C155.381 177.654 152.143 175.502 149.076 173.077L132.579 184.177C127.997 187.26 121.783 186.045 118.7 181.463L105.245 161.467C102.162 156.884 103.377 150.67 107.959 147.587L124.332 136.571C123.145 132.6 122.294 128.505 121.805 124.327L102.292 120.511C96.8715 119.451 93.3368 114.198 94.3967 108.778L99.0222 85.1241C100.082 79.704 105.335 76.1693 110.755 77.2292L130.269 81.0452C132.212 77.5107 134.435 74.1733 136.902 71.0565L126.073 54.9618C122.989 50.3797 124.205 44.1658 128.787 41.0826L148.783 27.6278C153.365 24.5446 159.579 25.7598 162.662 30.3419L173.492 46.4366C177.308 45.3252 181.237 44.5236 185.243 44.0553L189.059 24.5412ZM186.889 150.535C206.012 154.275 224.546 141.804 228.286 122.681C232.025 103.558 219.555 85.0241 200.432 81.2846C181.308 77.545 162.775 90.0158 159.035 109.139C155.296 128.262 167.766 146.796 186.889 150.535Z"/>
</mask>
<path d="M228.525 52.5193L130.384 33.3275L116.372 104.982L180.354 140.152L228.525 52.5193ZM238.915 59.472L176.291 137.435L233.674 183.528L294.741 142.439L238.915 59.472ZM255.288 48.4553L311.113 131.422L311.113 131.422L255.288 48.4553ZM269.167 51.1695L352.134 -4.65613L352.134 -4.65629L269.167 51.1695ZM282.622 71.1657L365.589 15.3401L365.589 15.3401L282.622 71.1657ZM279.908 85.045L335.733 168.012L335.733 168.012L279.908 85.045ZM263.41 96.1453L207.585 13.1785L147.009 53.9378L167.383 124.05L263.41 96.1453ZM265.741 107.537L166.47 119.593L175.231 191.732L246.549 205.678L265.741 107.537ZM285.029 111.309L304.221 13.1679L285.029 111.309ZM257.494 150.861L276.685 52.7201L204.608 38.6253L169.592 103.182L257.494 150.861ZM250.694 161.173L172.251 99.151L126.968 156.423L167.727 216.999L250.694 161.173ZM261.794 177.67L178.828 233.496L178.828 233.496L261.794 177.67ZM259.08 191.55L203.255 108.583L203.255 108.583L259.08 191.55ZM239.084 205.004L294.91 287.971L294.91 287.971L239.084 205.004ZM225.205 202.29L308.172 146.465L308.172 146.465L225.205 202.29ZM214.105 185.793L297.071 129.968L256.312 69.3917L186.2 89.7654L214.105 185.793ZM201.991 188.207L190.936 88.8202L117.944 96.9388L103.85 169.016L201.991 188.207ZM186.528 215.174L167.336 313.315L186.528 215.174ZM162.874 210.548L182.066 112.407L162.874 210.548ZM154.979 198.815L253.121 218.007L154.979 198.815ZM158.751 179.527L256.892 198.719L270.839 127.4L207.314 92.1101L158.751 179.527ZM149.076 173.077L211.099 94.6345L153.826 49.3503L93.2505 90.1098L149.076 173.077ZM132.579 184.177L76.7536 101.21L76.7536 101.21L132.579 184.177ZM118.7 181.463L35.7331 237.288L35.7331 237.288L118.7 181.463ZM105.245 161.467L22.2782 217.292L22.2783 217.292L105.245 161.467ZM107.959 147.587L52.1337 64.6203L52.1337 64.6204L107.959 147.587ZM124.332 136.571L180.158 219.538L241.223 178.448L220.143 107.929L124.332 136.571ZM121.805 124.327L221.129 112.716L212.652 40.1981L140.997 26.1858L121.805 124.327ZM102.292 120.511L121.483 22.3698L102.292 120.511ZM94.3967 108.778L192.538 127.969L94.3967 108.778ZM99.0222 85.1241L0.88109 65.9324L99.0222 85.1241ZM130.269 81.0452L111.078 179.186L182.732 193.199L217.903 129.216L130.269 81.0452ZM136.902 71.0565L215.309 133.123L260.653 75.8427L219.869 15.2308L136.902 71.0565ZM126.073 54.9618L43.1056 110.787L43.1056 110.787L126.073 54.9618ZM128.787 41.0826L184.612 124.049L184.612 124.049L128.787 41.0826ZM148.783 27.6278L92.9573 -55.3391L148.783 27.6278ZM162.662 30.3419L79.6952 86.1675L79.6953 86.1675L162.662 30.3419ZM173.492 46.4366L90.5249 102.262L131.308 162.874L201.45 142.449L173.492 46.4366ZM185.243 44.0553L196.853 143.379L269.372 134.902L283.384 63.2471L185.243 44.0553ZM219.984 -81.4948C160.362 -93.1541 102.577 -54.2724 90.9182 5.34943L287.2 43.733C277.661 92.5145 230.383 124.327 181.601 114.787L219.984 -81.4948ZM243.638 -76.8693L219.984 -81.4948L181.601 114.787L205.254 119.413L243.638 -76.8693ZM330.482 52.1968C342.141 -7.42544 303.26 -65.2101 243.638 -76.8693L205.254 119.413C156.473 109.874 124.66 62.5952 134.2 13.8133L330.482 52.1968ZM326.666 71.7111L330.482 52.1968L134.2 13.8133L130.384 33.3275L326.666 71.7111ZM301.539 -18.4913C293.826 -24.6867 285.523 -30.2617 276.696 -35.1138L180.354 140.152C178.9 139.353 177.542 138.44 176.291 137.435L301.539 -18.4913ZM199.462 -34.5115L183.089 -23.4949L294.741 142.439L311.113 131.422L199.462 -34.5115ZM352.134 -4.65629C318.219 -55.0596 249.865 -68.4264 199.462 -34.5115L311.113 131.422C269.874 159.171 213.949 148.234 186.2 106.995L352.134 -4.65629ZM365.589 15.3401L352.134 -4.65613L186.2 106.995L199.655 126.991L365.589 15.3401ZM335.733 168.012C386.137 134.097 399.503 65.7435 365.589 15.3401L199.655 126.991C171.906 85.7522 182.843 29.8267 224.082 2.07818L335.733 168.012ZM319.236 179.112L335.733 168.012L224.082 2.0781L207.585 13.1785L319.236 179.112ZM365.011 95.4814C363.901 86.3434 362.051 77.2314 359.438 68.241L167.383 124.05C166.952 122.569 166.65 121.077 166.47 119.593L365.011 95.4814ZM304.221 13.1679L284.932 9.396L246.549 205.678L265.837 209.45L304.221 13.1679ZM391.065 142.234C402.724 82.6119 363.843 24.8271 304.221 13.1679L265.837 209.45C217.056 199.911 185.243 152.632 194.783 103.851L391.065 142.234ZM386.44 165.888L391.065 142.234L194.783 103.851L190.157 127.504L386.44 165.888ZM257.373 252.732C316.996 264.391 374.78 225.509 386.44 165.888L190.157 127.504C199.697 78.7225 246.975 46.9102 295.757 56.4496L257.373 252.732ZM238.302 249.002L257.373 252.732L295.757 56.4496L276.685 52.7201L238.302 249.002ZM329.137 223.195C335.309 215.39 340.735 207.133 345.395 198.54L169.592 103.182C170.348 101.789 171.235 100.437 172.251 99.151L329.137 223.195ZM344.761 121.845L333.661 105.348L167.727 216.999L178.828 233.496L344.761 121.845ZM314.906 274.516C365.309 240.602 378.676 172.248 344.761 121.845L178.828 233.496C151.079 192.257 162.016 136.331 203.255 108.583L314.906 274.516ZM294.91 287.971L314.906 274.516L203.255 108.583L183.258 122.038L294.91 287.971ZM142.238 258.116C176.153 308.519 244.506 321.886 294.91 287.971L183.259 122.037C224.498 94.289 280.423 105.225 308.172 146.465L142.238 258.116ZM131.138 241.619L142.238 258.116L308.172 146.465L297.071 129.968L131.138 241.619ZM213.045 287.595C222.761 286.514 232.453 284.598 242.009 281.821L186.2 89.7654C187.774 89.3081 189.36 88.9955 190.936 88.8202L213.045 287.595ZM296.402 226.471L300.132 207.399L103.85 169.016L100.12 188.087L296.402 226.471ZM167.336 313.315C226.958 324.974 284.743 286.093 296.402 226.471L100.12 188.087C109.659 139.306 156.938 107.493 205.72 117.033L167.336 313.315ZM143.683 308.69L167.336 313.315L205.72 117.033L182.066 112.407L143.683 308.69ZM56.8384 179.623C45.1791 239.246 84.0608 297.03 143.683 308.69L182.066 112.407C230.848 121.947 262.66 169.225 253.121 218.007L56.8384 179.623ZM60.6103 160.335L56.8384 179.623L253.121 218.007L256.892 198.719L60.6103 160.335ZM87.0533 251.519C94.3977 257.326 102.142 262.473 110.189 266.943L207.314 92.1101C208.621 92.8359 209.889 93.678 211.099 94.6345L87.0533 251.519ZM188.405 267.144L204.902 256.044L93.2505 90.1098L76.7536 101.21L188.405 267.144ZM35.7331 237.288C69.648 287.692 138.002 301.058 188.405 267.144L76.7536 101.21C117.993 73.4617 173.918 84.3977 201.667 125.637L35.7331 237.288ZM22.2783 217.292L35.7331 237.288L201.667 125.637L188.212 105.641L22.2783 217.292ZM52.1337 64.6204C1.72999 98.5353 -11.6364 166.889 22.2782 217.292L188.212 105.641C215.96 146.88 205.024 202.806 163.785 230.554L52.1337 64.6204ZM68.5064 53.6037L52.1337 64.6203L163.785 230.554L180.158 219.538L68.5064 53.6037ZM22.4817 135.937C23.6512 145.942 25.6878 155.733 28.5213 165.212L220.143 107.929C220.602 109.466 220.936 111.068 221.129 112.716L22.4817 135.937ZM83.0999 218.652L102.614 222.468L140.997 26.1858L121.483 22.3698L83.0999 218.652ZM-3.74441 89.5858C-15.4037 149.208 23.478 206.993 83.0999 218.652L121.483 22.3698C170.265 31.9091 202.077 79.1876 192.538 127.969L-3.74441 89.5858ZM0.88109 65.9324L-3.74441 89.5858L192.538 127.969L197.163 104.316L0.88109 65.9324ZM129.947 -20.9119C70.3251 -32.5712 12.5403 6.31049 0.88109 65.9324L197.163 104.316C187.624 153.097 140.346 184.91 91.5637 175.37L129.947 -20.9119ZM149.461 -17.0959L129.947 -20.9119L91.5637 175.37L111.078 179.186L149.461 -17.0959ZM58.4948 8.98949C52.6042 16.4309 47.2879 24.4118 42.6361 32.8745L217.903 129.216C217.136 130.61 216.265 131.916 215.309 133.123L58.4948 8.98949ZM43.1056 110.787L53.9352 126.882L219.869 15.2308L209.039 -0.863769L43.1056 110.787ZM72.961 -41.8843C22.5574 -7.9694 9.19095 60.3841 43.1056 110.787L209.039 -0.863743C236.788 40.3753 225.852 96.3009 184.612 124.049L72.961 -41.8843ZM92.9573 -55.3391L72.961 -41.8843L184.612 124.049L204.608 110.595L92.9573 -55.3391ZM245.629 -25.4837C211.714 -75.8874 143.361 -89.2537 92.9573 -55.3391L204.608 110.595C163.37 138.343 107.444 127.407 79.6952 86.1675L245.629 -25.4837ZM256.459 -9.38902L245.629 -25.4837L79.6953 86.1675L90.5249 102.262L256.459 -9.38902ZM173.633 -55.2684C164.041 -54.1472 154.646 -52.229 145.533 -49.5755L201.45 142.449C199.971 142.879 198.433 143.194 196.853 143.379L173.633 -55.2684ZM90.9182 5.34943L87.1021 24.8635L283.384 63.2471L287.2 43.733L90.9182 5.34943ZM130.145 103.489C137.004 68.4105 171.002 45.5344 206.081 52.3942L167.698 248.676C241.022 263.015 312.088 215.198 326.427 141.873L130.145 103.489ZM181.24 179.426C146.161 172.566 123.285 138.568 130.145 103.489L326.427 141.873C340.766 68.5479 292.948 -2.51766 219.623 -16.8565L181.24 179.426ZM257.176 128.331C250.316 163.409 216.319 186.285 181.24 179.426L219.623 -16.8565C146.298 -31.1954 75.2329 16.6222 60.894 89.9471L257.176 128.331ZM206.081 52.3942C241.16 59.2539 264.036 93.2518 257.176 128.331L60.894 89.9471C46.5551 163.272 94.3727 234.337 167.698 248.676L206.081 52.3942Z" fill="#01A479" mask="url(#path-1-inside-1)"/>
<path d="M228.525 52.5193L130.384 33.3275L116.372 104.982L180.354 140.152L228.525 52.5193ZM238.915 59.472L176.291 137.435L233.674 183.528L294.741 142.439L238.915 59.472ZM255.288 48.4553L311.113 131.422L311.113 131.422L255.288 48.4553ZM269.167 51.1695L352.134 -4.65613L352.134 -4.65629L269.167 51.1695ZM282.622 71.1657L365.589 15.3401L365.589 15.3401L282.622 71.1657ZM279.908 85.045L335.733 168.012L335.733 168.012L279.908 85.045ZM263.41 96.1453L207.585 13.1785L147.009 53.9378L167.383 124.05L263.41 96.1453ZM265.741 107.537L166.47 119.593L175.231 191.732L246.549 205.678L265.741 107.537ZM285.029 111.309L304.221 13.1679L285.029 111.309ZM257.494 150.861L276.685 52.7201L204.608 38.6253L169.592 103.182L257.494 150.861ZM250.694 161.173L172.251 99.151L126.968 156.423L167.727 216.999L250.694 161.173ZM261.794 177.67L178.828 233.496L178.828 233.496L261.794 177.67ZM259.08 191.55L203.255 108.583L203.255 108.583L259.08 191.55ZM239.084 205.004L294.91 287.971L294.91 287.971L239.084 205.004ZM225.205 202.29L308.172 146.465L308.172 146.465L225.205 202.29ZM214.105 185.793L297.071 129.968L256.312 69.3917L186.2 89.7654L214.105 185.793ZM201.991 188.207L190.936 88.8202L117.944 96.9388L103.85 169.016L201.991 188.207ZM186.528 215.174L167.336 313.315L186.528 215.174ZM162.874 210.548L182.066 112.407L162.874 210.548ZM154.979 198.815L253.121 218.007L154.979 198.815ZM158.751 179.527L256.892 198.719L270.839 127.4L207.314 92.1101L158.751 179.527ZM149.076 173.077L211.099 94.6345L153.826 49.3503L93.2505 90.1098L149.076 173.077ZM132.579 184.177L76.7536 101.21L76.7536 101.21L132.579 184.177ZM118.7 181.463L35.7331 237.288L35.7331 237.288L118.7 181.463ZM105.245 161.467L22.2782 217.292L22.2783 217.292L105.245 161.467ZM107.959 147.587L52.1337 64.6203L52.1337 64.6204L107.959 147.587ZM124.332 136.571L180.158 219.538L241.223 178.448L220.143 107.929L124.332 136.571ZM121.805 124.327L221.129 112.716L212.652 40.1981L140.997 26.1858L121.805 124.327ZM102.292 120.511L121.483 22.3698L102.292 120.511ZM94.3967 108.778L192.538 127.969L94.3967 108.778ZM99.0222 85.1241L0.88109 65.9324L99.0222 85.1241ZM130.269 81.0452L111.078 179.186L182.732 193.199L217.903 129.216L130.269 81.0452ZM136.902 71.0565L215.309 133.123L260.653 75.8427L219.869 15.2308L136.902 71.0565ZM126.073 54.9618L43.1056 110.787L43.1056 110.787L126.073 54.9618ZM128.787 41.0826L184.612 124.049L184.612 124.049L128.787 41.0826ZM148.783 27.6278L92.9573 -55.3391L148.783 27.6278ZM162.662 30.3419L79.6952 86.1675L79.6953 86.1675L162.662 30.3419ZM173.492 46.4366L90.5249 102.262L131.308 162.874L201.45 142.449L173.492 46.4366ZM185.243 44.0553L196.853 143.379L269.372 134.902L283.384 63.2471L185.243 44.0553ZM219.984 -81.4948C160.362 -93.1541 102.577 -54.2724 90.9182 5.34943L287.2 43.733C277.661 92.5145 230.383 124.327 181.601 114.787L219.984 -81.4948ZM243.638 -76.8693L219.984 -81.4948L181.601 114.787L205.254 119.413L243.638 -76.8693ZM330.482 52.1968C342.141 -7.42544 303.26 -65.2101 243.638 -76.8693L205.254 119.413C156.473 109.874 124.66 62.5952 134.2 13.8133L330.482 52.1968ZM326.666 71.7111L330.482 52.1968L134.2 13.8133L130.384 33.3275L326.666 71.7111ZM301.539 -18.4913C293.826 -24.6867 285.523 -30.2617 276.696 -35.1138L180.354 140.152C178.9 139.353 177.542 138.44 176.291 137.435L301.539 -18.4913ZM199.462 -34.5115L183.089 -23.4949L294.741 142.439L311.113 131.422L199.462 -34.5115ZM352.134 -4.65629C318.219 -55.0596 249.865 -68.4264 199.462 -34.5115L311.113 131.422C269.874 159.171 213.949 148.234 186.2 106.995L352.134 -4.65629ZM365.589 15.3401L352.134 -4.65613L186.2 106.995L199.655 126.991L365.589 15.3401ZM335.733 168.012C386.137 134.097 399.503 65.7435 365.589 15.3401L199.655 126.991C171.906 85.7522 182.843 29.8267 224.082 2.07818L335.733 168.012ZM319.236 179.112L335.733 168.012L224.082 2.0781L207.585 13.1785L319.236 179.112ZM365.011 95.4814C363.901 86.3434 362.051 77.2314 359.438 68.241L167.383 124.05C166.952 122.569 166.65 121.077 166.47 119.593L365.011 95.4814ZM304.221 13.1679L284.932 9.396L246.549 205.678L265.837 209.45L304.221 13.1679ZM391.065 142.234C402.724 82.6119 363.843 24.8271 304.221 13.1679L265.837 209.45C217.056 199.911 185.243 152.632 194.783 103.851L391.065 142.234ZM386.44 165.888L391.065 142.234L194.783 103.851L190.157 127.504L386.44 165.888ZM257.373 252.732C316.996 264.391 374.78 225.509 386.44 165.888L190.157 127.504C199.697 78.7225 246.975 46.9102 295.757 56.4496L257.373 252.732ZM238.302 249.002L257.373 252.732L295.757 56.4496L276.685 52.7201L238.302 249.002ZM329.137 223.195C335.309 215.39 340.735 207.133 345.395 198.54L169.592 103.182C170.348 101.789 171.235 100.437 172.251 99.151L329.137 223.195ZM344.761 121.845L333.661 105.348L167.727 216.999L178.828 233.496L344.761 121.845ZM314.906 274.516C365.309 240.602 378.676 172.248 344.761 121.845L178.828 233.496C151.079 192.257 162.016 136.331 203.255 108.583L314.906 274.516ZM294.91 287.971L314.906 274.516L203.255 108.583L183.258 122.038L294.91 287.971ZM142.238 258.116C176.153 308.519 244.506 321.886 294.91 287.971L183.259 122.037C224.498 94.289 280.423 105.225 308.172 146.465L142.238 258.116ZM131.138 241.619L142.238 258.116L308.172 146.465L297.071 129.968L131.138 241.619ZM213.045 287.595C222.761 286.514 232.453 284.598 242.009 281.821L186.2 89.7654C187.774 89.3081 189.36 88.9955 190.936 88.8202L213.045 287.595ZM296.402 226.471L300.132 207.399L103.85 169.016L100.12 188.087L296.402 226.471ZM167.336 313.315C226.958 324.974 284.743 286.093 296.402 226.471L100.12 188.087C109.659 139.306 156.938 107.493 205.72 117.033L167.336 313.315ZM143.683 308.69L167.336 313.315L205.72 117.033L182.066 112.407L143.683 308.69ZM56.8384 179.623C45.1791 239.246 84.0608 297.03 143.683 308.69L182.066 112.407C230.848 121.947 262.66 169.225 253.121 218.007L56.8384 179.623ZM60.6103 160.335L56.8384 179.623L253.121 218.007L256.892 198.719L60.6103 160.335ZM87.0533 251.519C94.3977 257.326 102.142 262.473 110.189 266.943L207.314 92.1101C208.621 92.8359 209.889 93.678 211.099 94.6345L87.0533 251.519ZM188.405 267.144L204.902 256.044L93.2505 90.1098L76.7536 101.21L188.405 267.144ZM35.7331 237.288C69.648 287.692 138.002 301.058 188.405 267.144L76.7536 101.21C117.993 73.4617 173.918 84.3977 201.667 125.637L35.7331 237.288ZM22.2783 217.292L35.7331 237.288L201.667 125.637L188.212 105.641L22.2783 217.292ZM52.1337 64.6204C1.72999 98.5353 -11.6364 166.889 22.2782 217.292L188.212 105.641C215.96 146.88 205.024 202.806 163.785 230.554L52.1337 64.6204ZM68.5064 53.6037L52.1337 64.6203L163.785 230.554L180.158 219.538L68.5064 53.6037ZM22.4817 135.937C23.6512 145.942 25.6878 155.733 28.5213 165.212L220.143 107.929C220.602 109.466 220.936 111.068 221.129 112.716L22.4817 135.937ZM83.0999 218.652L102.614 222.468L140.997 26.1858L121.483 22.3698L83.0999 218.652ZM-3.74441 89.5858C-15.4037 149.208 23.478 206.993 83.0999 218.652L121.483 22.3698C170.265 31.9091 202.077 79.1876 192.538 127.969L-3.74441 89.5858ZM0.88109 65.9324L-3.74441 89.5858L192.538 127.969L197.163 104.316L0.88109 65.9324ZM129.947 -20.9119C70.3251 -32.5712 12.5403 6.31049 0.88109 65.9324L197.163 104.316C187.624 153.097 140.346 184.91 91.5637 175.37L129.947 -20.9119ZM149.461 -17.0959L129.947 -20.9119L91.5637 175.37L111.078 179.186L149.461 -17.0959ZM58.4948 8.98949C52.6042 16.4309 47.2879 24.4118 42.6361 32.8745L217.903 129.216C217.136 130.61 216.265 131.916 215.309 133.123L58.4948 8.98949ZM43.1056 110.787L53.9352 126.882L219.869 15.2308L209.039 -0.863769L43.1056 110.787ZM72.961 -41.8843C22.5574 -7.9694 9.19095 60.3841 43.1056 110.787L209.039 -0.863743C236.788 40.3753 225.852 96.3009 184.612 124.049L72.961 -41.8843ZM92.9573 -55.3391L72.961 -41.8843L184.612 124.049L204.608 110.595L92.9573 -55.3391ZM245.629 -25.4837C211.714 -75.8874 143.361 -89.2537 92.9573 -55.3391L204.608 110.595C163.37 138.343 107.444 127.407 79.6952 86.1675L245.629 -25.4837ZM256.459 -9.38902L245.629 -25.4837L79.6953 86.1675L90.5249 102.262L256.459 -9.38902ZM173.633 -55.2684C164.041 -54.1472 154.646 -52.229 145.533 -49.5755L201.45 142.449C199.971 142.879 198.433 143.194 196.853 143.379L173.633 -55.2684ZM90.9182 5.34943L87.1021 24.8635L283.384 63.2471L287.2 43.733L90.9182 5.34943ZM130.145 103.489C137.004 68.4105 171.002 45.5344 206.081 52.3942L167.698 248.676C241.022 263.015 312.088 215.198 326.427 141.873L130.145 103.489ZM181.24 179.426C146.161 172.566 123.285 138.568 130.145 103.489L326.427 141.873C340.766 68.5479 292.948 -2.51766 219.623 -16.8565L181.24 179.426ZM257.176 128.331C250.316 163.409 216.319 186.285 181.24 179.426L219.623 -16.8565C146.298 -31.1954 75.2329 16.6222 60.894 89.9471L257.176 128.331ZM206.081 52.3942C241.16 59.2539 264.036 93.2518 257.176 128.331L60.894 89.9471C46.5551 163.272 94.3727 234.337 167.698 248.676L206.081 52.3942Z" fill="url(#paint0_linear)" fill-opacity="0.7" mask="url(#path-1-inside-1)"/>
</g>
<g filter="url(#filter1_d)">
<path d="M79.5126 147.04L79.9645 145.609L79.5126 147.04ZM80.7171 147.42L80.2652 148.851L80.7171 147.42ZM87.2399 159.968L88.6702 160.42L87.2399 159.968ZM85.9118 164.172L84.4815 163.72L84.1516 164.764L85.0458 165.396L85.9118 164.172ZM90.5116 168.067L89.4465 169.123L90.2238 169.907L91.2034 169.398L90.5116 168.067ZM94.3591 166.067L93.6673 164.736L93.6673 164.736L94.3591 166.067ZM107.844 170.327L106.513 171.019L106.513 171.019L107.844 170.327ZM108.427 171.448L109.758 170.756L109.758 170.756L108.427 171.448ZM104.166 184.933L103.474 183.602L103.474 183.602L104.166 184.933ZM100.255 186.966L99.5631 185.635L98.5914 186.141L98.7765 187.22L100.255 186.966ZM100.752 192.551L99.2525 192.563L99.2612 193.653L100.301 193.981L100.752 192.551ZM98.4441 214.121L98.896 212.69L98.4441 214.121ZM94.4481 212.858L94.9 211.428L93.8495 211.096L93.2185 211.999L94.4481 212.858ZM90.6306 217.429L89.5663 216.372L88.7946 217.149L89.2997 218.121L90.6306 217.429ZM92.6638 221.34L91.3329 222.032L91.3329 222.032L92.6638 221.34ZM88.4033 234.825L87.7114 233.494L88.4033 234.825ZM87.2824 235.408L87.9743 236.739L87.2824 235.408ZM73.7973 231.147L75.1283 230.455L75.1283 230.455L73.7973 231.147ZM71.7642 227.236L73.0951 226.544L72.59 225.572L71.5106 225.758L71.7642 227.236ZM65.8296 227.735L65.8328 226.235L64.7312 226.232L64.3993 227.283L65.8296 227.735ZM52.019 238.253L52.4709 236.823L52.019 238.253ZM50.8145 237.873L50.3626 239.303L50.8145 237.873ZM45.5863 221.227L47.0167 221.679L47.345 220.64L46.4579 220.006L45.5863 221.227ZM41.3014 217.611L42.3584 216.547L41.5813 215.775L40.6096 216.281L41.3014 217.611ZM37.3901 219.645L36.6983 218.314L36.6983 218.314L37.3901 219.645ZM23.905 215.384L25.2359 214.692L25.2359 214.692L23.905 215.384ZM23.3224 214.263L21.9915 214.955L21.9915 214.955L23.3224 214.263ZM27.5829 200.778L26.8911 199.447L26.8911 199.447L27.5829 200.778ZM31.4301 198.778L32.122 200.109L33.1015 199.6L32.9065 198.513L31.4301 198.778ZM30.8848 192.776L32.3848 192.771L32.381 191.675L31.3367 191.345L30.8848 192.776ZM33.0875 171.172L32.6356 172.603L33.0875 171.172ZM37.2907 172.5L36.8388 173.931L37.8831 174.261L38.5154 173.366L37.2907 172.5ZM41.0108 168.075L42.0746 169.133L42.8472 168.356L42.3418 167.384L41.0108 168.075ZM39.0854 164.371L40.4164 163.68L40.4164 163.68L39.0854 164.371ZM43.346 150.886L42.6541 149.555L43.346 150.886ZM44.4668 150.304L43.775 148.973L43.775 148.973L44.4668 150.304ZM57.9519 154.564L59.2828 153.872L59.2828 153.872L57.9519 154.564ZM59.8773 158.268L58.5464 158.96L59.0518 159.932L60.1318 159.746L59.8773 158.268ZM65.6365 157.766L65.6417 159.266L66.7369 159.262L67.0668 158.218L65.6365 157.766ZM79.9645 145.609C73.9083 143.696 67.4476 147.054 65.5342 153.111L68.3948 154.014C69.8091 149.538 74.5844 147.056 79.0607 148.47L79.9645 145.609ZM81.169 145.99L79.9645 145.609L79.0607 148.47L80.2652 148.851L81.169 145.99ZM88.6702 160.42C90.5836 154.364 87.2252 147.903 81.169 145.99L80.2652 148.851C84.7415 150.265 87.2238 155.04 85.8096 159.516L88.6702 160.42ZM87.3422 164.624L88.6702 160.42L85.8096 159.516L84.4815 163.72L87.3422 164.624ZM91.5767 167.011C90.1091 165.53 88.5057 164.169 86.7779 162.947L85.0458 165.396C86.63 166.517 88.1002 167.765 89.4465 169.123L91.5767 167.011ZM93.6673 164.736L89.8197 166.736L91.2034 169.398L95.0509 167.398L93.6673 164.736ZM109.175 169.635C106.246 164 99.3026 161.806 93.6673 164.736L95.0509 167.398C99.2162 165.232 104.348 166.854 106.513 171.019L109.175 169.635ZM109.758 170.756L109.175 169.635L106.513 171.019L107.096 172.14L109.758 170.756ZM104.858 186.264C110.494 183.335 112.687 176.392 109.758 170.756L107.096 172.14C109.261 176.305 107.64 181.437 103.474 183.602L104.858 186.264ZM100.947 188.297L104.858 186.264L103.474 183.602L99.5631 185.635L100.947 188.297ZM102.252 192.539C102.237 190.6 102.066 188.652 101.733 186.713L98.7765 187.22C99.0815 188.998 99.2384 190.784 99.2525 192.563L102.252 192.539ZM105.302 192.415L101.204 191.12L100.301 193.981L104.398 195.276L105.302 192.415ZM112.803 206.845C114.716 200.789 111.358 194.328 105.302 192.415L104.398 195.276C108.874 196.69 111.357 201.465 109.942 205.941L112.803 206.845ZM112.422 208.05L112.803 206.845L109.942 205.941L109.562 207.146L112.422 208.05ZM97.9922 215.551C104.048 217.464 110.509 214.106 112.422 208.05L109.562 207.146C108.148 211.622 103.372 214.105 98.896 212.69L97.9922 215.551ZM93.9962 214.288L97.9922 215.551L98.896 212.69L94.9 211.428L93.9962 214.288ZM91.695 218.486C93.1681 217.002 94.498 215.405 95.6776 213.717L93.2185 211.999C92.1365 213.547 90.9169 215.012 89.5663 216.372L91.695 218.486ZM93.9947 220.648L91.9616 216.737L89.2997 218.121L91.3329 222.032L93.9947 220.648ZM89.0951 236.156C94.7305 233.227 96.9241 226.283 93.9947 220.648L91.3329 222.032C93.4981 226.197 91.8767 231.329 87.7114 233.494L89.0951 236.156ZM87.9743 236.739L89.0951 236.156L87.7114 233.494L86.5906 234.077L87.9743 236.739ZM72.4664 231.839C75.3958 237.474 82.3389 239.668 87.9743 236.739L86.5906 234.077C82.4253 236.242 77.2935 234.621 75.1283 230.455L72.4664 231.839ZM70.4333 227.928L72.4664 231.839L75.1283 230.455L73.0951 226.544L70.4333 227.928ZM65.8264 229.235C67.886 229.239 69.9572 229.068 72.0178 228.714L71.5106 225.758C69.6213 226.082 67.722 226.239 65.8328 226.235L65.8264 229.235ZM65.9974 232.183L67.2599 228.186L64.3993 227.283L63.1367 231.279L65.9974 232.183ZM51.5671 239.684C57.6233 241.597 64.0839 238.239 65.9974 232.183L63.1367 231.279C61.7225 235.755 56.9472 238.237 52.4709 236.823L51.5671 239.684ZM50.3626 239.303L51.5671 239.684L52.4709 236.823L51.2664 236.443L50.3626 239.303ZM42.8614 224.873C40.948 230.929 44.3064 237.39 50.3626 239.303L51.2664 236.443C46.79 235.028 44.3078 230.253 45.722 225.777L42.8614 224.873ZM44.156 220.775L42.8614 224.873L45.722 225.777L47.0167 221.679L44.156 220.775ZM40.2444 218.676C41.6403 220.062 43.1366 221.321 44.7148 222.448L46.4579 220.006C45.0103 218.973 43.6382 217.818 42.3584 216.547L40.2444 218.676ZM38.082 220.976L41.9933 218.942L40.6096 216.281L36.6983 218.314L38.082 220.976ZM22.5741 216.076C25.5035 221.711 32.4466 223.905 38.082 220.976L36.6983 218.314C32.533 220.479 27.4011 218.858 25.2359 214.692L22.5741 216.076ZM21.9915 214.955L22.5741 216.076L25.2359 214.692L24.6533 213.571L21.9915 214.955ZM26.8911 199.447C21.2557 202.377 19.0621 209.32 21.9915 214.955L24.6533 213.571C22.4881 209.406 24.1095 204.274 28.2747 202.109L26.8911 199.447ZM30.7383 197.447L26.8911 199.447L28.2747 202.109L32.122 200.109L30.7383 197.447ZM29.3848 192.781C29.3922 194.897 29.5855 196.992 29.9537 199.043L32.9065 198.513C32.5688 196.632 32.3915 194.711 32.3848 192.771L29.3848 192.781ZM26.2298 192.878L30.4329 194.206L31.3367 191.345L27.1336 190.017L26.2298 192.878ZM18.7286 178.448C16.8152 184.504 20.1736 190.965 26.2298 192.878L27.1336 190.017C22.6572 188.603 20.1749 183.828 21.5892 179.352L18.7286 178.448ZM19.1091 177.243L18.7286 178.448L21.5892 179.352L21.9698 178.147L19.1091 177.243ZM33.5394 169.742C27.4832 167.829 21.0226 171.187 19.1091 177.243L21.9698 178.147C23.384 173.671 28.1593 171.188 32.6356 172.603L33.5394 169.742ZM37.7426 171.07L33.5394 169.742L32.6356 172.603L36.8388 173.931L37.7426 171.07ZM39.9471 167.018C38.5375 168.436 37.2374 169.978 36.066 171.634L38.5154 173.366C39.5895 171.848 40.7816 170.433 42.0746 169.133L39.9471 167.018ZM37.7545 165.063L39.6799 168.767L42.3418 167.384L40.4164 163.68L37.7545 165.063ZM42.6541 149.555C37.0188 152.485 34.8251 159.428 37.7545 165.063L40.4164 163.68C38.2512 159.514 39.8725 154.382 44.0378 152.217L42.6541 149.555ZM43.775 148.973L42.6541 149.555L44.0378 152.217L45.1586 151.635L43.775 148.973ZM59.2828 153.872C56.3534 148.237 49.4103 146.043 43.775 148.973L45.1586 151.635C49.3239 149.469 54.4558 151.091 56.621 155.256L59.2828 153.872ZM61.2082 157.576L59.2828 153.872L56.621 155.256L58.5464 158.96L61.2082 157.576ZM65.6313 156.266C63.6024 156.273 61.5932 156.451 59.6229 156.79L60.1318 159.746C61.9391 159.435 63.7815 159.272 65.6417 159.266L65.6313 156.266ZM65.5342 153.111L64.2062 157.314L67.0668 158.218L68.3948 154.014L65.5342 153.111ZM80.5555 197.319C77.9748 205.487 69.2611 210.017 61.0928 207.436L60.189 210.297C69.9371 213.377 80.3363 207.971 83.4162 198.223L80.5555 197.319ZM70.4384 177.856C78.6066 180.437 83.1363 189.151 80.5555 197.319L83.4162 198.223C86.496 188.475 81.0903 178.076 71.3422 174.996L70.4384 177.856ZM50.9756 187.974C53.5563 179.805 62.2701 175.276 70.4384 177.856L71.3422 174.996C61.594 171.916 51.1949 177.322 48.115 187.07L50.9756 187.974ZM61.0928 207.436C52.9245 204.856 48.3949 196.142 50.9756 187.974L48.115 187.07C45.0351 196.818 50.4409 207.217 60.189 210.297L61.0928 207.436Z" fill="#01A479"/>
<path d="M79.5126 147.04L79.9645 145.609L79.5126 147.04ZM80.7171 147.42L80.2652 148.851L80.7171 147.42ZM87.2399 159.968L88.6702 160.42L87.2399 159.968ZM85.9118 164.172L84.4815 163.72L84.1516 164.764L85.0458 165.396L85.9118 164.172ZM90.5116 168.067L89.4465 169.123L90.2238 169.907L91.2034 169.398L90.5116 168.067ZM94.3591 166.067L93.6673 164.736L93.6673 164.736L94.3591 166.067ZM107.844 170.327L106.513 171.019L106.513 171.019L107.844 170.327ZM108.427 171.448L109.758 170.756L109.758 170.756L108.427 171.448ZM104.166 184.933L103.474 183.602L103.474 183.602L104.166 184.933ZM100.255 186.966L99.5631 185.635L98.5914 186.141L98.7765 187.22L100.255 186.966ZM100.752 192.551L99.2525 192.563L99.2612 193.653L100.301 193.981L100.752 192.551ZM98.4441 214.121L98.896 212.69L98.4441 214.121ZM94.4481 212.858L94.9 211.428L93.8495 211.096L93.2185 211.999L94.4481 212.858ZM90.6306 217.429L89.5663 216.372L88.7946 217.149L89.2997 218.121L90.6306 217.429ZM92.6638 221.34L91.3329 222.032L91.3329 222.032L92.6638 221.34ZM88.4033 234.825L87.7114 233.494L88.4033 234.825ZM87.2824 235.408L87.9743 236.739L87.2824 235.408ZM73.7973 231.147L75.1283 230.455L75.1283 230.455L73.7973 231.147ZM71.7642 227.236L73.0951 226.544L72.59 225.572L71.5106 225.758L71.7642 227.236ZM65.8296 227.735L65.8328 226.235L64.7312 226.232L64.3993 227.283L65.8296 227.735ZM52.019 238.253L52.4709 236.823L52.019 238.253ZM50.8145 237.873L50.3626 239.303L50.8145 237.873ZM45.5863 221.227L47.0167 221.679L47.345 220.64L46.4579 220.006L45.5863 221.227ZM41.3014 217.611L42.3584 216.547L41.5813 215.775L40.6096 216.281L41.3014 217.611ZM37.3901 219.645L36.6983 218.314L36.6983 218.314L37.3901 219.645ZM23.905 215.384L25.2359 214.692L25.2359 214.692L23.905 215.384ZM23.3224 214.263L21.9915 214.955L21.9915 214.955L23.3224 214.263ZM27.5829 200.778L26.8911 199.447L26.8911 199.447L27.5829 200.778ZM31.4301 198.778L32.122 200.109L33.1015 199.6L32.9065 198.513L31.4301 198.778ZM30.8848 192.776L32.3848 192.771L32.381 191.675L31.3367 191.345L30.8848 192.776ZM33.0875 171.172L32.6356 172.603L33.0875 171.172ZM37.2907 172.5L36.8388 173.931L37.8831 174.261L38.5154 173.366L37.2907 172.5ZM41.0108 168.075L42.0746 169.133L42.8472 168.356L42.3418 167.384L41.0108 168.075ZM39.0854 164.371L40.4164 163.68L40.4164 163.68L39.0854 164.371ZM43.346 150.886L42.6541 149.555L43.346 150.886ZM44.4668 150.304L43.775 148.973L43.775 148.973L44.4668 150.304ZM57.9519 154.564L59.2828 153.872L59.2828 153.872L57.9519 154.564ZM59.8773 158.268L58.5464 158.96L59.0518 159.932L60.1318 159.746L59.8773 158.268ZM65.6365 157.766L65.6417 159.266L66.7369 159.262L67.0668 158.218L65.6365 157.766ZM79.9645 145.609C73.9083 143.696 67.4476 147.054 65.5342 153.111L68.3948 154.014C69.8091 149.538 74.5844 147.056 79.0607 148.47L79.9645 145.609ZM81.169 145.99L79.9645 145.609L79.0607 148.47L80.2652 148.851L81.169 145.99ZM88.6702 160.42C90.5836 154.364 87.2252 147.903 81.169 145.99L80.2652 148.851C84.7415 150.265 87.2238 155.04 85.8096 159.516L88.6702 160.42ZM87.3422 164.624L88.6702 160.42L85.8096 159.516L84.4815 163.72L87.3422 164.624ZM91.5767 167.011C90.1091 165.53 88.5057 164.169 86.7779 162.947L85.0458 165.396C86.63 166.517 88.1002 167.765 89.4465 169.123L91.5767 167.011ZM93.6673 164.736L89.8197 166.736L91.2034 169.398L95.0509 167.398L93.6673 164.736ZM109.175 169.635C106.246 164 99.3026 161.806 93.6673 164.736L95.0509 167.398C99.2162 165.232 104.348 166.854 106.513 171.019L109.175 169.635ZM109.758 170.756L109.175 169.635L106.513 171.019L107.096 172.14L109.758 170.756ZM104.858 186.264C110.494 183.335 112.687 176.392 109.758 170.756L107.096 172.14C109.261 176.305 107.64 181.437 103.474 183.602L104.858 186.264ZM100.947 188.297L104.858 186.264L103.474 183.602L99.5631 185.635L100.947 188.297ZM102.252 192.539C102.237 190.6 102.066 188.652 101.733 186.713L98.7765 187.22C99.0815 188.998 99.2384 190.784 99.2525 192.563L102.252 192.539ZM105.302 192.415L101.204 191.12L100.301 193.981L104.398 195.276L105.302 192.415ZM112.803 206.845C114.716 200.789 111.358 194.328 105.302 192.415L104.398 195.276C108.874 196.69 111.357 201.465 109.942 205.941L112.803 206.845ZM112.422 208.05L112.803 206.845L109.942 205.941L109.562 207.146L112.422 208.05ZM97.9922 215.551C104.048 217.464 110.509 214.106 112.422 208.05L109.562 207.146C108.148 211.622 103.372 214.105 98.896 212.69L97.9922 215.551ZM93.9962 214.288L97.9922 215.551L98.896 212.69L94.9 211.428L93.9962 214.288ZM91.695 218.486C93.1681 217.002 94.498 215.405 95.6776 213.717L93.2185 211.999C92.1365 213.547 90.9169 215.012 89.5663 216.372L91.695 218.486ZM93.9947 220.648L91.9616 216.737L89.2997 218.121L91.3329 222.032L93.9947 220.648ZM89.0951 236.156C94.7305 233.227 96.9241 226.283 93.9947 220.648L91.3329 222.032C93.4981 226.197 91.8767 231.329 87.7114 233.494L89.0951 236.156ZM87.9743 236.739L89.0951 236.156L87.7114 233.494L86.5906 234.077L87.9743 236.739ZM72.4664 231.839C75.3958 237.474 82.3389 239.668 87.9743 236.739L86.5906 234.077C82.4253 236.242 77.2935 234.621 75.1283 230.455L72.4664 231.839ZM70.4333 227.928L72.4664 231.839L75.1283 230.455L73.0951 226.544L70.4333 227.928ZM65.8264 229.235C67.886 229.239 69.9572 229.068 72.0178 228.714L71.5106 225.758C69.6213 226.082 67.722 226.239 65.8328 226.235L65.8264 229.235ZM65.9974 232.183L67.2599 228.186L64.3993 227.283L63.1367 231.279L65.9974 232.183ZM51.5671 239.684C57.6233 241.597 64.0839 238.239 65.9974 232.183L63.1367 231.279C61.7225 235.755 56.9472 238.237 52.4709 236.823L51.5671 239.684ZM50.3626 239.303L51.5671 239.684L52.4709 236.823L51.2664 236.443L50.3626 239.303ZM42.8614 224.873C40.948 230.929 44.3064 237.39 50.3626 239.303L51.2664 236.443C46.79 235.028 44.3078 230.253 45.722 225.777L42.8614 224.873ZM44.156 220.775L42.8614 224.873L45.722 225.777L47.0167 221.679L44.156 220.775ZM40.2444 218.676C41.6403 220.062 43.1366 221.321 44.7148 222.448L46.4579 220.006C45.0103 218.973 43.6382 217.818 42.3584 216.547L40.2444 218.676ZM38.082 220.976L41.9933 218.942L40.6096 216.281L36.6983 218.314L38.082 220.976ZM22.5741 216.076C25.5035 221.711 32.4466 223.905 38.082 220.976L36.6983 218.314C32.533 220.479 27.4011 218.858 25.2359 214.692L22.5741 216.076ZM21.9915 214.955L22.5741 216.076L25.2359 214.692L24.6533 213.571L21.9915 214.955ZM26.8911 199.447C21.2557 202.377 19.0621 209.32 21.9915 214.955L24.6533 213.571C22.4881 209.406 24.1095 204.274 28.2747 202.109L26.8911 199.447ZM30.7383 197.447L26.8911 199.447L28.2747 202.109L32.122 200.109L30.7383 197.447ZM29.3848 192.781C29.3922 194.897 29.5855 196.992 29.9537 199.043L32.9065 198.513C32.5688 196.632 32.3915 194.711 32.3848 192.771L29.3848 192.781ZM26.2298 192.878L30.4329 194.206L31.3367 191.345L27.1336 190.017L26.2298 192.878ZM18.7286 178.448C16.8152 184.504 20.1736 190.965 26.2298 192.878L27.1336 190.017C22.6572 188.603 20.1749 183.828 21.5892 179.352L18.7286 178.448ZM19.1091 177.243L18.7286 178.448L21.5892 179.352L21.9698 178.147L19.1091 177.243ZM33.5394 169.742C27.4832 167.829 21.0226 171.187 19.1091 177.243L21.9698 178.147C23.384 173.671 28.1593 171.188 32.6356 172.603L33.5394 169.742ZM37.7426 171.07L33.5394 169.742L32.6356 172.603L36.8388 173.931L37.7426 171.07ZM39.9471 167.018C38.5375 168.436 37.2374 169.978 36.066 171.634L38.5154 173.366C39.5895 171.848 40.7816 170.433 42.0746 169.133L39.9471 167.018ZM37.7545 165.063L39.6799 168.767L42.3418 167.384L40.4164 163.68L37.7545 165.063ZM42.6541 149.555C37.0188 152.485 34.8251 159.428 37.7545 165.063L40.4164 163.68C38.2512 159.514 39.8725 154.382 44.0378 152.217L42.6541 149.555ZM43.775 148.973L42.6541 149.555L44.0378 152.217L45.1586 151.635L43.775 148.973ZM59.2828 153.872C56.3534 148.237 49.4103 146.043 43.775 148.973L45.1586 151.635C49.3239 149.469 54.4558 151.091 56.621 155.256L59.2828 153.872ZM61.2082 157.576L59.2828 153.872L56.621 155.256L58.5464 158.96L61.2082 157.576ZM65.6313 156.266C63.6024 156.273 61.5932 156.451 59.6229 156.79L60.1318 159.746C61.9391 159.435 63.7815 159.272 65.6417 159.266L65.6313 156.266ZM65.5342 153.111L64.2062 157.314L67.0668 158.218L68.3948 154.014L65.5342 153.111ZM80.5555 197.319C77.9748 205.487 69.2611 210.017 61.0928 207.436L60.189 210.297C69.9371 213.377 80.3363 207.971 83.4162 198.223L80.5555 197.319ZM70.4384 177.856C78.6066 180.437 83.1363 189.151 80.5555 197.319L83.4162 198.223C86.496 188.475 81.0903 178.076 71.3422 174.996L70.4384 177.856ZM50.9756 187.974C53.5563 179.805 62.2701 175.276 70.4384 177.856L71.3422 174.996C61.594 171.916 51.1949 177.322 48.115 187.07L50.9756 187.974ZM61.0928 207.436C52.9245 204.856 48.3949 196.142 50.9756 187.974L48.115 187.07C45.0351 196.818 50.4409 207.217 60.189 210.297L61.0928 207.436Z" fill="url(#paint1_linear)" fill-opacity="0.7"/>
</g>
<defs>
<filter id="filter0_d" x="73.7505" y="0" width="239.82" height="239.82" filterUnits="userSpaceOnUse" color-interpolation-filters="sRGB">
<feFlood flood-opacity="0" result="BackgroundImageFix"/>
<feColorMatrix in="SourceAlpha" type="matrix" values="0 0 0 0 0 0 0 0 0 0 0 0 0 0 0 0 0 0 127 0"/>
<feOffset dy="4"/>
<feGaussianBlur stdDeviation="2"/>
<feColorMatrix type="matrix" values="0 0 0 0 0 0 0 0 0 0 0 0 0 0 0 0 0 0 0.25 0"/>
<feBlend mode="normal" in2="BackgroundImageFix" result="effect1_dropShadow"/>
<feBlend mode="normal" in="SourceGraphic" in2="effect1_dropShadow" result="shape"/>
</filter>
<filter id="filter1_d" x="0.117676" y="130.999" width="131.296" height="131.296" filterUnits="userSpaceOnUse" color-interpolation-filters="sRGB">
<feFlood flood-opacity="0" result="BackgroundImageFix"/>
<feColorMatrix in="SourceAlpha" type="matrix" values="0 0 0 0 0 0 0 0 0 0 0 0 0 0 0 0 0 0 127 0"/>
<feOffset dy="4"/>
<feGaussianBlur stdDeviation="2"/>
<feColorMatrix type="matrix" values="0 0 0 0 0 0 0 0 0 0 0 0 0 0 0 0 0 0 0.25 0"/>
<feBlend mode="normal" in2="BackgroundImageFix" result="effect1_dropShadow"/>
<feBlend mode="normal" in="SourceGraphic" in2="effect1_dropShadow" result="shape"/>
</filter>
<linearGradient id="paint0_linear" x1="115.668" y1="0" x2="271.653" y2="231.82" gradientUnits="userSpaceOnUse">
<stop stop-color="#6764EA"/>
<stop offset="1" stop-color="white" stop-opacity="0"/>
</linearGradient>
<linearGradient id="paint1_linear" x1="96.9408" y1="251.584" x2="34.8057" y2="132.053" gradientUnits="userSpaceOnUse">
<stop stop-color="#6764EA"/>
<stop offset="1" stop-color="white" stop-opacity="0"/>
</linearGradient>
</defs>
</svg>
