<svg width="313" height="222" viewBox="0 0 313 222" fill="none" xmlns="http://www.w3.org/2000/svg">
<g filter="url(#filter0_d)">
<path d="M101.991 50.9111L115.898 62.5H134H258.5V142H88V50H100.898L101.991 50.9111Z" stroke="#75BDAA" stroke-width="100"/>
<path d="M101.991 50.9111L115.898 62.5H134H258.5V142H88V50H100.898L101.991 50.9111Z" stroke="url(#paint0_linear)" stroke-width="100"/>
</g>
<g filter="url(#filter1_d)">
<path d="M6 212V20H87L102 32.5H276.5V212H6Z" stroke="#01A479" stroke-width="3"/>
<path d="M6 212V20H87L102 32.5H276.5V212H6Z" stroke="url(#paint1_linear)" stroke-opacity="0.7" stroke-width="3"/>
</g>
<defs>
<filter id="filter0_d" x="34" y="0" width="278.5" height="200" filterUnits="userSpaceOnUse" color-interpolation-filters="sRGB">
<feFlood flood-opacity="0" result="BackgroundImageFix"/>
<feColorMatrix in="SourceAlpha" type="matrix" values="0 0 0 0 0 0 0 0 0 0 0 0 0 0 0 0 0 0 127 0"/>
<feOffset dy="4"/>
<feGaussianBlur stdDeviation="2"/>
<feColorMatrix type="matrix" values="0 0 0 0 0 0 0 0 0 0 0 0 0 0 0 0 0 0 0.25 0"/>
<feBlend mode="normal" in2="BackgroundImageFix" result="effect1_dropShadow"/>
<feBlend mode="normal" in="SourceGraphic" in2="effect1_dropShadow" result="shape"/>
</filter>
<filter id="filter1_d" x="0.5" y="18.5" width="281.5" height="203" filterUnits="userSpaceOnUse" color-interpolation-filters="sRGB">
<feFlood flood-opacity="0" result="BackgroundImageFix"/>
<feColorMatrix in="SourceAlpha" type="matrix" values="0 0 0 0 0 0 0 0 0 0 0 0 0 0 0 0 0 0 127 0"/>
<feOffset dy="4"/>
<feGaussianBlur stdDeviation="2"/>
<feColorMatrix type="matrix" values="0 0 0 0 0 0 0 0 0 0 0 0 0 0 0 0 0 0 0.25 0"/>
<feBlend mode="normal" in2="BackgroundImageFix" result="effect1_dropShadow"/>
<feBlend mode="normal" in="SourceGraphic" in2="effect1_dropShadow" result="shape"/>
</filter>
<linearGradient id="paint0_linear" x1="308.086" y1="192" x2="119.469" y2="-35.8873" gradientUnits="userSpaceOnUse">
<stop stop-color="#6764EA"/>
<stop offset="1" stop-color="white" stop-opacity="0"/>
</linearGradient>
<linearGradient id="paint1_linear" x1="276.083" y1="210.343" x2="94.8353" y2="-45.0078" gradientUnits="userSpaceOnUse">
<stop stop-color="#6764EA"/>
<stop offset="1" stop-color="white" stop-opacity="0"/>
</linearGradient>
</defs>
</svg>
