<svg width="260" height="81" xmlns="http://www.w3.org/2000/svg" xmlns:xlink="http://www.w3.org/1999/xlink" overflow="hidden"><defs><clipPath id="clip0"><rect x="218" y="140" width="260" height="81"/></clipPath></defs><g clip-path="url(#clip0)" transform="translate(-218 -140)"><path d="M221.333 146C221.702 146 222 146.298 222 146.667L222 207.333C222 207.702 221.702 208 221.333 208L218.667 208C218.298 208 218 207.702 218 207.333L218 146.667C218 146.298 218.298 146 218.667 146Z" fill="#DC3545" fill-rule="evenodd"/><text font-family="Raleway,Raleway_MSFontService,sans-serif" font-weight="400" font-size="24" transform="translate(238.18 171)">РОССИЙСКИЕ ВЕБ <tspan font-size="24" x="27.8333" y="29">ТЕХНОЛОГИИ</tspan></text><path d="M475.333 146C475.702 146 476 146.298 476 146.667L476 207.333C476 207.702 475.702 208 475.333 208L472.667 208C472.298 208 472 207.702 472 207.333L472 146.667C472 146.298 472.298 146 472.667 146Z" fill="#DC3545" fill-rule="evenodd"/></g></svg>