<svg width="260" height="80" xmlns="http://www.w3.org/2000/svg" xmlns:xlink="http://www.w3.org/1999/xlink" overflow="hidden"><defs><clipPath id="clip0"><rect x="715" y="81" width="260" height="80"/></clipPath></defs><g clip-path="url(#clip0)" transform="translate(-715 -81)"><path d="M718.333 85.9999C718.702 85.9999 719 86.2984 719 86.6666L719 148.333C719 148.701 718.702 149 718.333 149L715.667 149C715.299 149 715 148.701 715 148.333L715 86.6666C715 86.2984 715.299 85.9999 715.667 85.9999Z" fill="#DC3545" fill-rule="evenodd"/><text font-family="Raleway,Raleway_MSFontService,sans-serif" font-weight="400" font-size="24" transform="translate(735.045 112)">РОССИЙСКИЕ ВЕБ <tspan font-size="24" x="50.2534" y="29">РЕШЕНИЯ</tspan></text><path d="M972.333 85.9999C972.702 85.9999 973 86.2984 973 86.6666L973 148.333C973 148.701 972.702 149 972.333 149L969.667 149C969.299 149 969 148.701 969 148.333L969 86.6666C969 86.2984 969.299 85.9999 969.667 85.9999Z" fill="#DC3545" fill-rule="evenodd"/></g></svg>