<svg width="178" height="184" xmlns="http://www.w3.org/2000/svg" xmlns:xlink="http://www.w3.org/1999/xlink" overflow="hidden"><defs><filter id="fx0" x="-10%" y="-10%" width="120%" height="120%" filterUnits="userSpaceOnUse" primitiveUnits="userSpaceOnUse"><feComponentTransfer color-interpolation-filters="sRGB"><feFuncR type="discrete" tableValues="0 0"/><feFuncG type="discrete" tableValues="0 0"/><feFuncB type="discrete" tableValues="0 0"/><feFuncA type="linear" slope="0.4" intercept="0"/></feComponentTransfer><feGaussianBlur stdDeviation="1.77778 1.77778"/></filter><filter id="fx1" x="-10%" y="-10%" width="120%" height="120%" filterUnits="userSpaceOnUse" primitiveUnits="userSpaceOnUse"><feComponentTransfer color-interpolation-filters="sRGB"><feFuncR type="discrete" tableValues="0 0"/><feFuncG type="discrete" tableValues="0 0"/><feFuncB type="discrete" tableValues="0 0"/><feFuncA type="linear" slope="0.4" intercept="0"/></feComponentTransfer><feGaussianBlur stdDeviation="1.77778 1.77778"/></filter><filter id="fx2" x="-10%" y="-10%" width="120%" height="120%" filterUnits="userSpaceOnUse" primitiveUnits="userSpaceOnUse"><feComponentTransfer color-interpolation-filters="sRGB"><feFuncR type="discrete" tableValues="0 0"/><feFuncG type="discrete" tableValues="0 0"/><feFuncB type="discrete" tableValues="0 0"/><feFuncA type="linear" slope="0.4" intercept="0"/></feComponentTransfer><feGaussianBlur stdDeviation="1.77778 1.77778"/></filter><filter id="fx3" x="-10%" y="-10%" width="120%" height="120%" filterUnits="userSpaceOnUse" primitiveUnits="userSpaceOnUse"><feComponentTransfer color-interpolation-filters="sRGB"><feFuncR type="discrete" tableValues="0 0"/><feFuncG type="discrete" tableValues="0 0"/><feFuncB type="discrete" tableValues="0 0"/><feFuncA type="linear" slope="0.4" intercept="0"/></feComponentTransfer><feGaussianBlur stdDeviation="1.77778 1.77778"/></filter><filter id="fx4" x="-10%" y="-10%" width="120%" height="120%" filterUnits="userSpaceOnUse" primitiveUnits="userSpaceOnUse"><feComponentTransfer color-interpolation-filters="sRGB"><feFuncR type="discrete" tableValues="0 0"/><feFuncG type="discrete" tableValues="0 0"/><feFuncB type="discrete" tableValues="0 0"/><feFuncA type="linear" slope="0.4" intercept="0"/></feComponentTransfer><feGaussianBlur stdDeviation="1.77778 1.77778"/></filter><filter id="fx5" x="-10%" y="-10%" width="120%" height="120%" filterUnits="userSpaceOnUse" primitiveUnits="userSpaceOnUse"><feComponentTransfer color-interpolation-filters="sRGB"><feFuncR type="discrete" tableValues="0 0"/><feFuncG type="discrete" tableValues="0 0"/><feFuncB type="discrete" tableValues="0 0"/><feFuncA type="linear" slope="0.4" intercept="0"/></feComponentTransfer><feGaussianBlur stdDeviation="1.77778 1.77778"/></filter><filter id="fx6" x="-10%" y="-10%" width="120%" height="120%" filterUnits="userSpaceOnUse" primitiveUnits="userSpaceOnUse"><feComponentTransfer color-interpolation-filters="sRGB"><feFuncR type="discrete" tableValues="0 0"/><feFuncG type="discrete" tableValues="0 0"/><feFuncB type="discrete" tableValues="0 0"/><feFuncA type="linear" slope="0.4" intercept="0"/></feComponentTransfer><feGaussianBlur stdDeviation="1.77778 1.77778"/></filter><filter id="fx7" x="-10%" y="-10%" width="120%" height="120%" filterUnits="userSpaceOnUse" primitiveUnits="userSpaceOnUse"><feComponentTransfer color-interpolation-filters="sRGB"><feFuncR type="discrete" tableValues="0 0"/><feFuncG type="discrete" tableValues="0 0"/><feFuncB type="discrete" tableValues="0 0"/><feFuncA type="linear" slope="0.4" intercept="0"/></feComponentTransfer><feGaussianBlur stdDeviation="1.77778 1.77778"/></filter><filter id="fx8" x="-10%" y="-10%" width="120%" height="120%" filterUnits="userSpaceOnUse" primitiveUnits="userSpaceOnUse"><feComponentTransfer color-interpolation-filters="sRGB"><feFuncR type="discrete" tableValues="0 0"/><feFuncG type="discrete" tableValues="0 0"/><feFuncB type="discrete" tableValues="0 0"/><feFuncA type="linear" slope="0.4" intercept="0"/></feComponentTransfer><feGaussianBlur stdDeviation="1.77778 1.77778"/></filter><filter id="fx9" x="-10%" y="-10%" width="120%" height="120%" filterUnits="userSpaceOnUse" primitiveUnits="userSpaceOnUse"><feComponentTransfer color-interpolation-filters="sRGB"><feFuncR type="discrete" tableValues="0 0"/><feFuncG type="discrete" tableValues="0 0"/><feFuncB type="discrete" tableValues="0 0"/><feFuncA type="linear" slope="0.4" intercept="0"/></feComponentTransfer><feGaussianBlur stdDeviation="1.77778 1.77778"/></filter><filter id="fx10" x="-10%" y="-10%" width="120%" height="120%" filterUnits="userSpaceOnUse" primitiveUnits="userSpaceOnUse"><feComponentTransfer color-interpolation-filters="sRGB"><feFuncR type="discrete" tableValues="0 0"/><feFuncG type="discrete" tableValues="0 0"/><feFuncB type="discrete" tableValues="0 0"/><feFuncA type="linear" slope="0.4" intercept="0"/></feComponentTransfer><feGaussianBlur stdDeviation="1.77778 1.77778"/></filter><clipPath id="clip11"><rect x="61" y="210" width="178" height="184"/></clipPath><clipPath id="clip12"><rect x="-2" y="-2" width="182" height="170"/></clipPath><clipPath id="clip13"><rect x="0" y="0" width="179" height="166"/></clipPath><clipPath id="clip14"><path d="M92.5001 316.5 92.5001 384.5 212.5 384.5 212.5 316.5ZM61 210 239 210 239 394 61 394Z" fill-rule="evenodd" clip-rule="evenodd"/></clipPath><clipPath id="clip15"><rect x="-2" y="-2" width="139" height="85"/></clipPath><clipPath id="clip16"><rect x="0" y="0" width="135" height="83"/></clipPath><clipPath id="clip17"><rect x="29" y="31" width="97" height="48"/></clipPath><clipPath id="clip18"><rect x="0" y="0" width="156" height="114"/></clipPath><clipPath id="clip19"><path d="M92.5001 317.5 92.5001 384.5 118.5 384.5 118.5 317.5ZM61 210 239 210 239 394 61 394Z" fill-rule="evenodd" clip-rule="evenodd"/></clipPath><clipPath id="clip20"><rect x="-2" y="-2" width="44" height="85"/></clipPath><clipPath id="clip21"><rect x="0" y="0" width="41" height="82"/></clipPath><clipPath id="clip22"><path d="M123.5 341.5 123.5 384.5 149.5 384.5 149.5 341.5ZM61 210 239 210 239 394 61 394Z" fill-rule="evenodd" clip-rule="evenodd"/></clipPath><clipPath id="clip23"><rect x="-2" y="-2" width="44" height="60"/></clipPath><clipPath id="clip24"><rect x="0" y="0" width="41" height="58"/></clipPath><clipPath id="clip25"><path d="M155.5 351.5 155.5 384.5 181.5 384.5 181.5 351.5ZM61 210 239 210 239 394 61 394Z" fill-rule="evenodd" clip-rule="evenodd"/></clipPath><clipPath id="clip26"><rect x="-2" y="-2" width="44" height="50"/></clipPath><clipPath id="clip27"><rect x="0" y="0" width="41" height="48"/></clipPath><clipPath id="clip28"><path d="M186.5 325.5 186.5 384.5 212.5 384.5 212.5 325.5ZM61 210 239 210 239 394 61 394Z" fill-rule="evenodd" clip-rule="evenodd"/></clipPath><clipPath id="clip29"><rect x="-2" y="-2" width="44" height="77"/></clipPath><clipPath id="clip30"><rect x="0" y="0" width="41" height="74"/></clipPath><clipPath id="clip31"><rect x="-2" y="7" width="71" height="39"/></clipPath><clipPath id="clip32"><rect x="0" y="0" width="71" height="46"/></clipPath><clipPath id="clip33"><rect x="-2" y="7" width="40" height="64"/></clipPath><clipPath id="clip34"><rect x="0" y="0" width="39" height="70"/></clipPath><clipPath id="clip35"><rect x="3" y="7" width="37" height="74"/></clipPath><clipPath id="clip36"><rect x="0" y="0" width="37" height="80"/></clipPath><clipPath id="clip37"><rect x="3" y="7" width="68" height="47"/></clipPath><clipPath id="clip38"><rect x="0" y="0" width="69" height="54"/></clipPath></defs><g clip-path="url(#clip11)" transform="translate(-61 -210)"><g clip-path="url(#clip12)" filter="url(#fx0)" transform="translate(61 210)"><g clip-path="url(#clip13)"><path d="M74.0369 7.32854 103.491 7.32854 103.491 23.3454 115.334 27.0321 124.852 32.3621 135.776 20.3816 157.513 40.3123 145.84 53.1138 147.925 55.982C150.387 60.2747 152.397 64.8608 153.89 69.6751L155.166 75.2275 171.672 75.2275 171.672 104.763 155.261 104.763 151.598 116.594C141.254 141.12 117.036 158.329 88.8097 158.329 60.5837 158.329 36.3658 141.12 26.021 116.594L22.3589 104.763 7.67157 104.763 7.67157 75.2275 22.4536 75.2275 23.7296 69.6751C25.2229 64.8608 27.2328 60.2747 29.6943 55.982L31.8323 53.0409 20.029 41.7806 40.3305 20.3817 52.8439 32.3194 62.2851 27.032 74.0369 23.374Z" stroke="#0D0D0D" stroke-miterlimit="8" fill="none" fill-rule="evenodd"/></g></g><path d="M137.865 214.5 167.319 214.5 167.319 230.517 179.163 234.204 188.68 239.534 199.604 227.553 221.341 247.484 209.669 260.285 211.754 263.154C214.215 267.446 216.225 272.032 217.718 276.847L218.994 282.399 235.5 282.399 235.5 311.935 219.089 311.935 215.427 323.765C205.082 348.291 180.864 365.5 152.638 365.5 124.412 365.5 100.194 348.291 89.8495 323.765L86.1873 311.935 71.5 311.935 71.5 282.399 86.282 282.399 87.558 276.847C89.0513 272.032 91.0612 267.446 93.5227 263.154L95.6607 260.213 83.8575 248.952 104.159 227.553 116.672 239.491 126.113 234.204 137.865 230.546Z" stroke="#0D0D0D" stroke-width="1.33333" stroke-miterlimit="8" fill="none" fill-rule="evenodd"/><g clip-path="url(#clip14)"><g clip-path="url(#clip15)" filter="url(#fx1)" transform="translate(82 312)"><g clip-path="url(#clip16)"><rect x="7.67162" y="7.32849" width="120" height="68" stroke="#FFFFFF" stroke-miterlimit="8" fill="#FFFFFF"/></g></g></g><rect x="92.5001" y="316.5" width="120" height="68" stroke="#FFFFFF" stroke-width="1.33333" stroke-miterlimit="8" fill="#FFFFFF"/><g clip-path="url(#clip17)" filter="url(#fx2)" transform="translate(72 212)"><g clip-path="url(#clip18)"><path d="M2.76-32.4 24.36-32.4 24.36-25.488 9.912-25.488 9.912-19.632 21.336-19.632 21.336-12.912 9.912-12.912 9.912-6.912 24.36-6.912 24.36 0 2.76 0ZM52.7773-18.504C52.7773-16.824 52.3853-15.384 51.6013-14.184 50.8173-12.984 49.7293-12.128 48.3373-11.616L54.2173 0 46.3933 0 40.9933-11.136 36.7453-11.136 36.7453 0 29.5933 0 29.5933-32.4 45.4093-32.4C47.6493-32.4 49.4413-31.736 50.7853-30.408 52.1133-29.064 52.7773-27.272 52.7773-25.032ZM36.7453-17.544 44.0653-17.544C44.6093-17.544 45.0093-17.672 45.2653-17.928 45.5053-18.168 45.6253-18.56 45.6253-19.104L45.6253-23.904C45.6253-24.448 45.5053-24.848 45.2653-25.104 45.0093-25.344 44.6093-25.464 44.0653-25.464L36.7453-25.464Z" transform="translate(36.0039 72)"/><path d="M9.912-11.784 9.912 0 2.76 0 2.76-32.4 18.432-32.4C20.672-32.4 22.464-31.736 23.808-30.408 25.136-29.064 25.8-27.272 25.8-25.032L25.8-19.152C25.8-16.912 25.136-15.128 23.808-13.8 22.464-12.456 20.672-11.784 18.432-11.784ZM9.912-18.504 17.064-18.504C17.624-18.504 18.032-18.624 18.288-18.864 18.528-19.104 18.648-19.504 18.648-20.064L18.648-23.904C18.648-24.464 18.528-24.864 18.288-25.104 18.032-25.344 17.624-25.464 17.064-25.464L9.912-25.464Z" transform="translate(91.5039 72)"/></g></g><path d="M2.76-32.4 24.36-32.4 24.36-25.488 9.912-25.488 9.912-19.632 21.336-19.632 21.336-12.912 9.912-12.912 9.912-6.912 24.36-6.912 24.36 0 2.76 0ZM52.7773-18.504C52.7773-16.824 52.3853-15.384 51.6013-14.184 50.8173-12.984 49.7293-12.128 48.3373-11.616L54.2173 0 46.3933 0 40.9933-11.136 36.7453-11.136 36.7453 0 29.5933 0 29.5933-32.4 45.4093-32.4C47.6493-32.4 49.4413-31.736 50.7853-30.408 52.1133-29.064 52.7773-27.272 52.7773-25.032ZM36.7453-17.544 44.0653-17.544C44.6093-17.544 45.0093-17.672 45.2653-17.928 45.5053-18.168 45.6253-18.56 45.6253-19.104L45.6253-23.904C45.6253-24.448 45.5053-24.848 45.2653-25.104 45.0093-25.344 44.6093-25.464 44.0653-25.464L36.7453-25.464Z" transform="translate(110.832 281)"/><path d="M9.912-11.784 9.912 0 2.76 0 2.76-32.4 18.432-32.4C20.672-32.4 22.464-31.736 23.808-30.408 25.136-29.064 25.8-27.272 25.8-25.032L25.8-19.152C25.8-16.912 25.136-15.128 23.808-13.8 22.464-12.456 20.672-11.784 18.432-11.784ZM9.912-18.504 17.064-18.504C17.624-18.504 18.032-18.624 18.288-18.864 18.528-19.104 18.648-19.504 18.648-20.064L18.648-23.904C18.648-24.464 18.528-24.864 18.288-25.104 18.032-25.344 17.624-25.464 17.064-25.464L9.912-25.464Z" transform="translate(166.332 281)"/><g clip-path="url(#clip19)"><g clip-path="url(#clip20)" filter="url(#fx3)" transform="translate(82 313)"><g clip-path="url(#clip21)"><rect x="7.67162" y="7.32849" width="26" height="67" stroke="#0D0D0D" stroke-miterlimit="8" fill="#FFFFFF"/></g></g></g><rect x="92.5001" y="317.5" width="26" height="67" stroke="#0D0D0D" stroke-width="1.33333" stroke-miterlimit="8" fill="#FFFFFF"/><g clip-path="url(#clip22)"><g clip-path="url(#clip23)" filter="url(#fx4)" transform="translate(113 337)"><g clip-path="url(#clip24)"><rect x="7.67162" y="7.32849" width="26" height="43" stroke="#0D0D0D" stroke-miterlimit="8" fill="#FFFFFF"/></g></g></g><rect x="123.5" y="341.5" width="26" height="43" stroke="#0D0D0D" stroke-width="1.33333" stroke-miterlimit="8" fill="#FFFFFF"/><g clip-path="url(#clip25)"><g clip-path="url(#clip26)" filter="url(#fx5)" transform="translate(145 347)"><g clip-path="url(#clip27)"><rect x="7.67163" y="7.32849" width="26" height="33" stroke="#0D0D0D" stroke-miterlimit="8" fill="#FFFFFF"/></g></g></g><rect x="155.5" y="351.5" width="26" height="33" stroke="#0D0D0D" stroke-width="1.33333" stroke-miterlimit="8" fill="#FFFFFF"/><g clip-path="url(#clip28)"><g clip-path="url(#clip29)" filter="url(#fx6)" transform="translate(176 321)"><g clip-path="url(#clip30)"><rect x="7.67163" y="7.32849" width="26" height="59" stroke="#0D0D0D" stroke-miterlimit="8" fill="#FFFFFF"/></g></g></g><rect x="186.5" y="325.5" width="26" height="59" stroke="#0D0D0D" stroke-width="1.33333" stroke-miterlimit="8" fill="#FFFFFF"/><g clip-path="url(#clip31)" filter="url(#fx7)" transform="translate(95 281)"><g clip-path="url(#clip32)"><path d="M7.17162 38.6048 7.17162 30.4667 55.602 30.4667 55.102 30.9667 55.102 21.9951 56.102 21.9951 56.102 31.4667 7.67162 31.4667 8.17162 30.9667 8.17162 38.6048ZM51.602 23.3285 55.602 15.3285 59.602 23.3285Z" fill="#C00000"/></g></g><path d="M104.833 316.776 104.833 308.472 153.43 308.472 152.764 309.138 152.764 300.167 154.097 300.167 154.097 309.805 105.5 309.805 106.167 309.138 106.167 316.776ZM149.43 301.5 153.43 293.5 157.43 301.5Z" fill="#C00000"/><g clip-path="url(#clip33)" filter="url(#fx8)" transform="translate(126 281)"><g clip-path="url(#clip34)"><path d="M7.17163 63.2861 7.17163 48.3072 24.1306 48.3072 23.6306 48.8072 23.6306 21.9952 24.6306 21.9952 24.6306 49.3072 7.67163 49.3072 8.17163 48.8072 8.17163 63.2861ZM20.1306 23.3285 24.1306 15.3285 28.1306 23.3285Z" fill="#C00000"/></g></g><path d="M135.833 341.458 135.833 326.312 152.959 326.312 152.292 326.979 152.292 300.167 153.626 300.167 153.626 327.645 136.5 327.645 137.167 326.979 137.167 341.458ZM148.959 301.5 152.959 293.5 156.959 301.5Z" fill="#C00000"/><g clip-path="url(#clip35)" filter="url(#fx9)" transform="translate(136 281)"><g clip-path="url(#clip36)"><path d="M0-0.5 16.19-0.5 16.19 15.0124 15.69 14.5124 50.7134 14.5124 50.7134 15.5124 15.19 15.5124 15.19 0 15.69 0.5 0 0.5ZM49.3801 11.0124 57.3801 15.0124 49.3801 19.0124Z" fill="#C00000" transform="matrix(-1.83697e-16 -1 -1 1.83697e-16 29.684 72.7085)"/></g></g><path d="M0-0.666667 16.3567-0.666667 16.3567 15.0124 15.69 14.3457 50.7134 14.3457 50.7134 15.6791 15.0234 15.6791 15.0234 0 15.69 0.666667 0 0.666667ZM49.3801 11.0124 57.3801 15.0124 49.3801 19.0124Z" fill="#C00000" transform="matrix(-1.83697e-16 -1 -1 1.83697e-16 168.512 350.88)"/><g clip-path="url(#clip37)" filter="url(#fx10)" transform="translate(136 281)"><g clip-path="url(#clip38)"><path d="M0-0.5 7.59598-0.5 7.59598 46.4837 7.09598 45.9837 24.8585 45.9837 24.8585 46.9837 6.59598 46.9837 6.59598 0 7.09598 0.5 0 0.5ZM23.5251 42.4837 31.5251 46.4837 23.5251 50.4837Z" fill="#C00000" transform="matrix(-1.83697e-16 -1 -1 1.83697e-16 61.1553 46.8536)"/></g></g><path d="M0-0.666667 7.76265-0.666667 7.76265 46.4837 7.09598 45.817 24.8585 45.817 24.8585 47.1503 6.42932 47.1503 6.42932 0 7.09598 0.666667 0 0.666667ZM23.5251 42.4837 31.5251 46.4837 23.5251 50.4837Z" fill="#C00000" transform="matrix(-1.83697e-16 -1 -1 1.83697e-16 199.984 325.025)"/></g></svg>